<?xml version="1.0" encoding="UTF-8"?>
<svg width="181px" height="24px" viewBox="0 0 181 24" version="1.1" xmlns="http://www.w3.org/2000/svg" xmlns:xlink="http://www.w3.org/1999/xlink">
    <title>fpjs</title>
    <g id="Page-1" stroke="none" stroke-width="1" fill="none" fill-rule="evenodd">
        <g id="Artboard" transform="translate(-115.000000, -78.000000)" fill-rule="nonzero">
            <g id="fpjs" transform="translate(115.000000, 78.000000)">
                <path d="M43.914,18 L43.914,13.05 L48.27,13.05 L48.27,10.926 L43.914,10.926 L43.914,7.632 L48.846,7.632 L49.134,5.526 L40.944,5.526 L40.944,18 L43.914,18 Z M55.35075,6.642 C55.84275,6.642 56.24475,6.492 56.55675,6.192 C56.86875,5.892 57.02475,5.508 57.02475,5.04 C57.02475,4.584 56.86875,4.203 56.55675,3.897 C56.24475,3.591 55.84275,3.438 55.35075,3.438 C54.85875,3.438 54.45375,3.591 54.13575,3.897 C53.81775,4.203 53.65875,4.584 53.65875,5.04 C53.65875,5.496 53.81775,5.877 54.13575,6.183 C54.45375,6.489 54.85875,6.642 55.35075,6.642 Z M59.50875,18 L59.50875,16.056 L57.06075,16.056 L57.06075,8.442 L51.60675,8.442 L51.60675,10.386 L54.21675,10.386 L54.21675,16.056 L51.51675,16.056 L51.51675,18 L59.50875,18 Z M65.0415,18 L65.0415,11.322 C65.3295,10.962 65.6085,10.689 65.8785,10.503 C66.1485,10.317 66.4275,10.224 66.7155,10.224 C67.0635,10.224 67.3035,10.338 67.4355,10.566 C67.5675,10.794 67.6335,11.208 67.6335,11.808 L67.6335,11.808 L67.6335,18 L70.4775,18 L70.4775,10.98 C70.4775,10.08 70.2465,9.378 69.7845,8.874 C69.3225,8.37 68.6775,8.118 67.8495,8.118 C67.2495,8.118 66.7125,8.235 66.2385,8.469 C65.7645,8.703 65.3115,9.06 64.8795,9.54 L64.8795,9.54 L64.6815,8.442 L62.1975,8.442 L62.1975,18 L65.0415,18 Z M77.09025,21.996 C78.75825,21.996 80.02725,21.717 80.89725,21.159 C81.76725,20.601 82.20225,19.824 82.20225,18.828 C82.20225,18.3 82.05225,17.826 81.75225,17.406 C81.45225,16.986 81.02625,16.656 80.47425,16.416 C79.92225,16.176 79.28625,16.056 78.56625,16.056 L78.56625,16.056 L76.98225,16.056 C76.56225,16.056 76.28325,16.005 76.14525,15.903 C76.00725,15.801 75.93825,15.66 75.93825,15.48 C75.93825,15.372 75.96525,15.267 76.01925,15.165 C76.07325,15.063 76.14825,14.988 76.24425,14.94 C76.59225,15.012 76.96425,15.048 77.36025,15.048 C78.16425,15.048 78.87225,14.91 79.48425,14.634 C80.09625,14.358 80.57025,13.977 80.90625,13.491 C81.24225,13.005 81.41025,12.456 81.41025,11.844 C81.41025,11.244 81.25725,10.752 80.95125,10.368 C80.64525,9.984 80.18025,9.654 79.55625,9.378 C80.76825,9.378 81.68625,9.252 82.31025,9 L82.31025,9 L81.66225,6.912 C80.96625,7.332 80.28225,7.647 79.61025,7.857 C78.93825,8.067 78.12225,8.16 77.16225,8.136 C76.33425,8.136 75.59625,8.277 74.94825,8.559 C74.30025,8.841 73.79625,9.246 73.43625,9.774 C73.07625,10.302 72.89625,10.92 72.89625,11.628 C72.89625,12.252 73.02825,12.783 73.29225,13.221 C73.55625,13.659 73.98825,14.04 74.58825,14.364 C74.25225,14.58 73.99125,14.847 73.80525,15.165 C73.61925,15.483 73.52625,15.822 73.52625,16.182 C73.52625,16.734 73.77225,17.187 74.26425,17.541 C74.75625,17.895 75.49425,18.072 76.47825,18.072 L76.47825,18.072 L77.99025,18.072 C78.44625,18.072 78.79125,18.159 79.02525,18.333 C79.25925,18.507 79.37625,18.738 79.37625,19.026 C79.37625,19.374 79.21725,19.644 78.89925,19.836 C78.58125,20.028 78.00225,20.124 77.16225,20.124 C76.56225,20.124 76.10625,20.082 75.79425,19.998 C75.48225,19.914 75.26925,19.788 75.15525,19.62 C75.04125,19.452 74.98425,19.218 74.98425,18.918 L74.98425,18.918 L72.46425,18.918 C72.46425,19.59 72.59925,20.148 72.86925,20.592 C73.13925,21.036 73.61325,21.381 74.29125,21.627 C74.96925,21.873 75.90225,21.996 77.09025,21.996 Z M77.23425,13.23 C76.79025,13.23 76.43625,13.086 76.17225,12.798 C75.90825,12.51 75.77625,12.108 75.77625,11.592 C75.77625,11.1 75.90525,10.71 76.16325,10.422 C76.42125,10.134 76.77825,9.99 77.23425,9.99 C78.20625,9.99 78.69225,10.512 78.69225,11.556 C78.69225,12.108 78.56625,12.525 78.31425,12.807 C78.06225,13.089 77.70225,13.23 77.23425,13.23 Z M88.671,18.306 C89.451,18.306 90.165,18.189 90.813,17.955 C91.461,17.721 92.019,17.4 92.487,16.992 L92.487,16.992 L91.353,15.444 C90.537,15.972 89.721,16.236 88.905,16.236 C87.549,16.236 86.781,15.51 86.601,14.058 L86.601,14.058 L92.793,14.058 C92.829,13.77 92.847,13.428 92.847,13.032 C92.847,12.012 92.664,11.133 92.298,10.395 C91.932,9.657 91.413,9.093 90.741,8.703 C90.069,8.313 89.277,8.118 88.365,8.118 C87.393,8.118 86.556,8.343 85.854,8.793 C85.152,9.243 84.618,9.855 84.252,10.629 C83.886,11.403 83.703,12.27 83.703,13.23 C83.703,14.238 83.892,15.123 84.27,15.885 C84.648,16.647 85.209,17.241 85.953,17.667 C86.697,18.093 87.603,18.306 88.671,18.306 Z M90.075,12.33 L86.565,12.33 C86.625,11.55 86.811,10.971 87.123,10.593 C87.435,10.215 87.849,10.026 88.365,10.026 C89.481,10.026 90.051,10.794 90.075,12.33 L90.075,12.33 Z M101.18775,18 L101.18775,16.092 L99.29775,16.092 L99.29775,13.356 C99.52575,12.624 99.84375,12.018 100.25175,11.538 C100.65975,11.058 101.12775,10.77 101.65575,10.674 L101.65575,10.674 L101.65575,12.438 L103.45575,12.438 L103.97775,8.442 C103.49775,8.25 102.96975,8.154 102.39375,8.154 C101.62575,8.154 100.97775,8.355 100.44975,8.757 C99.92175,9.159 99.48375,9.768 99.13575,10.584 L99.13575,10.584 L98.63175,8.442 L95.19375,8.442 L95.19375,10.332 L96.45375,10.332 L96.45375,16.092 L95.19375,16.092 L95.19375,18 L101.18775,18 Z M106.0725,21.996 L108.9165,21.69 L108.9165,17.316 C109.5045,17.976 110.2605,18.306 111.1845,18.306 C111.9405,18.306 112.5945,18.087 113.1465,17.649 C113.6985,17.211 114.1215,16.605 114.4155,15.831 C114.7095,15.057 114.8565,14.178 114.8565,13.194 C114.8565,11.574 114.5745,10.323 114.0105,9.441 C113.4465,8.559 112.5645,8.118 111.3645,8.118 C110.8965,8.118 110.4315,8.232 109.9695,8.46 C109.5075,8.688 109.0905,9.036 108.7185,9.504 L108.7185,9.504 L108.5925,8.442 L106.0725,8.442 L106.0725,21.996 Z M110.3205,16.218 C110.0325,16.218 109.7775,16.149 109.5555,16.011 C109.3335,15.873 109.1205,15.66 108.9165,15.372 L108.9165,15.372 L108.9165,11.34 C109.3605,10.596 109.8825,10.224 110.4825,10.224 C110.9625,10.224 111.3225,10.443 111.5625,10.881 C111.8025,11.319 111.9225,12.102 111.9225,13.23 C111.9225,14.274 111.7875,15.033 111.5175,15.507 C111.2475,15.981 110.8485,16.218 110.3205,16.218 Z M123.12525,18 L123.12525,16.092 L121.23525,16.092 L121.23525,13.356 C121.46325,12.624 121.78125,12.018 122.18925,11.538 C122.59725,11.058 123.06525,10.77 123.59325,10.674 L123.59325,10.674 L123.59325,12.438 L125.39325,12.438 L125.91525,8.442 C125.43525,8.25 124.90725,8.154 124.33125,8.154 C123.56325,8.154 122.91525,8.355 122.38725,8.757 C121.85925,9.159 121.42125,9.768 121.07325,10.584 L121.07325,10.584 L120.56925,8.442 L117.13125,8.442 L117.13125,10.332 L118.39125,10.332 L118.39125,16.092 L117.13125,16.092 L117.13125,18 L123.12525,18 Z M132.132,6.642 C132.624,6.642 133.026,6.492 133.338,6.192 C133.65,5.892 133.806,5.508 133.806,5.04 C133.806,4.584 133.65,4.203 133.338,3.897 C133.026,3.591 132.624,3.438 132.132,3.438 C131.64,3.438 131.235,3.591 130.917,3.897 C130.599,4.203 130.44,4.584 130.44,5.04 C130.44,5.496 130.599,5.877 130.917,6.183 C131.235,6.489 131.64,6.642 132.132,6.642 Z M136.29,18 L136.29,16.056 L133.842,16.056 L133.842,8.442 L128.388,8.442 L128.388,10.386 L130.998,10.386 L130.998,16.056 L128.298,16.056 L128.298,18 L136.29,18 Z M141.82275,18 L141.82275,11.322 C142.11075,10.962 142.38975,10.689 142.65975,10.503 C142.92975,10.317 143.20875,10.224 143.49675,10.224 C143.84475,10.224 144.08475,10.338 144.21675,10.566 C144.34875,10.794 144.41475,11.208 144.41475,11.808 L144.41475,11.808 L144.41475,18 L147.25875,18 L147.25875,10.98 C147.25875,10.08 147.02775,9.378 146.56575,8.874 C146.10375,8.37 145.45875,8.118 144.63075,8.118 C144.03075,8.118 143.49375,8.235 143.01975,8.469 C142.54575,8.703 142.09275,9.06 141.66075,9.54 L141.66075,9.54 L141.46275,8.442 L138.97875,8.442 L138.97875,18 L141.82275,18 Z M155.4195,18.306 C156.6075,18.306 157.6515,18.018 158.5515,17.442 L158.5515,17.442 L157.6155,15.624 C157.0995,15.912 156.5415,16.056 155.9415,16.056 C155.4615,16.056 155.1135,15.954 154.8975,15.75 C154.6815,15.546 154.5735,15.21 154.5735,14.742 L154.5735,14.742 L154.5735,10.404 L157.3635,10.404 L157.6515,8.442 L154.5735,8.442 L154.5735,6.03 L151.7295,6.372 L151.7295,8.442 L149.7315,8.442 L149.7315,10.404 L151.7295,10.404 L151.7295,14.742 C151.7295,15.87 152.0385,16.746 152.6565,17.37 C153.2745,17.994 154.1955,18.306 155.4195,18.306 Z M164.12025,18.27 C165.70425,18.27 166.93725,17.844 167.81925,16.992 C168.70125,16.14 169.14225,14.982 169.14225,13.518 L169.14225,13.518 L169.14225,5.526 L162.37425,5.526 L162.37425,7.686 L166.19025,7.686 L166.19025,13.536 C166.19025,14.376 165.98325,15.009 165.56925,15.435 C165.15525,15.861 164.61825,16.074 163.95825,16.074 C163.47825,16.074 163.05225,16.014 162.68025,15.894 C162.30825,15.774 161.90625,15.57 161.47425,15.282 L161.47425,15.282 L160.35825,17.1 C160.93425,17.496 161.51325,17.79 162.09525,17.982 C162.67725,18.174 163.35225,18.27 164.12025,18.27 Z M175.773,18.306 C176.817,18.306 177.72,18.141 178.482,17.811 C179.244,17.481 179.829,17.016 180.237,16.416 C180.645,15.816 180.849,15.126 180.849,14.346 C180.849,13.266 180.54,12.423 179.922,11.817 C179.304,11.211 178.359,10.716 177.087,10.332 C176.391,10.116 175.869,9.93 175.521,9.774 C175.173,9.618 174.924,9.45 174.774,9.27 C174.624,9.09 174.549,8.868 174.549,8.604 C174.549,8.208 174.714,7.905 175.044,7.695 C175.374,7.485 175.827,7.38 176.403,7.38 C176.919,7.38 177.42,7.467 177.906,7.641 C178.392,7.815 178.845,8.076 179.265,8.424 L179.265,8.424 L180.651,6.822 C179.511,5.742 178.023,5.202 176.187,5.202 C175.311,5.202 174.516,5.346 173.802,5.634 C173.088,5.922 172.524,6.342 172.11,6.894 C171.696,7.446 171.489,8.094 171.489,8.838 C171.489,9.786 171.795,10.56 172.407,11.16 C173.019,11.76 174.057,12.282 175.521,12.726 C176.385,12.99 176.976,13.251 177.294,13.509 C177.612,13.767 177.771,14.124 177.771,14.58 C177.771,15.06 177.582,15.435 177.204,15.705 C176.826,15.975 176.325,16.11 175.701,16.11 C174.405,16.11 173.283,15.69 172.335,14.85 L172.335,14.85 L170.841,16.506 C172.065,17.706 173.709,18.306 175.773,18.306 Z" id="FingerprintJS" fill="#0D102B"></path>
                <path d="M18.8569689,2.964 C18.7551299,2.964 18.6532909,2.94 18.5641818,2.892 C16.1200454,1.704 14.0068858,1.2 11.4736403,1.2 C8.95312462,1.2 6.55990774,1.764 4.38309877,2.892 C4.07758172,3.048 3.69568541,2.94 3.51746713,2.652 C3.35197873,2.364 3.46654763,1.992 3.77206467,1.836 C6.1398218,0.624 8.73671671,0 11.4736403,0 C14.1851041,0 16.5528612,0.564 19.1497561,1.824 C19.468003,1.98 19.5825719,2.34 19.4170835,2.628 C19.3025146,2.844 19.0861067,2.964 18.8569689,2.964 L18.8569689,2.964 Z M0.640514929,9.264 C0.513216159,9.264 0.385917388,9.228 0.271348495,9.156 C-0.021438676,8.964 -0.0850880611,8.592 0.118589971,8.316 C1.3788478,6.636 2.9828123,5.316 4.89229385,4.392 C8.88947524,2.448 14.0068858,2.436 18.0167971,4.38 C19.9262786,5.304 21.5302431,6.612 22.7905009,8.28 C22.994179,8.544 22.9305296,8.928 22.6377424,9.12 C22.3449552,9.312 21.9503291,9.252 21.746651,8.976 C20.6009621,7.464 19.1497561,6.276 17.4312227,5.448 C13.777748,3.684 9.10588314,3.684 5.46513832,5.46 C3.73387504,6.3 2.28266906,7.5 1.13698013,9.012 C1.03514112,9.18 0.844192961,9.264 0.640514929,9.264 L0.640514929,9.264 Z M8.59668806,23.748 C8.43119966,23.748 8.26571126,23.688 8.15114237,23.568 C7.04364307,22.524 6.44533885,21.852 5.59243709,20.4 C4.71407557,18.924 4.2558,17.124 4.2558,15.192 C4.2558,11.628 7.48918876,8.724 11.4609104,8.724 C15.432632,8.724 18.6660208,11.628 18.6660208,15.192 C18.6660208,15.528 18.3859635,15.792 18.0295269,15.792 C17.6730904,15.792 17.3930331,15.528 17.3930331,15.192 C17.3930331,12.288 14.7324888,9.924 11.4609104,9.924 C8.189332,9.924 5.5287877,12.288 5.5287877,15.192 C5.5287877,16.92 5.93614377,18.516 6.71266627,19.812 C7.52737839,21.192 8.08749298,21.78 9.06769351,22.716 C9.30956118,22.956 9.30956118,23.328 9.06769351,23.568 C8.92766487,23.688 8.76217647,23.748 8.59668806,23.748 Z M17.7240099,21.528 C16.2091545,21.528 14.8725174,21.168 13.777748,20.46 C11.8809963,19.248 10.7480373,17.28 10.7480373,15.192 C10.7480373,14.856 11.0280946,14.592 11.3845311,14.592 C11.7409677,14.592 12.021025,14.856 12.021025,15.192 C12.021025,16.884 12.9375761,18.48 14.4906211,19.464 C15.3944424,20.04 16.4510222,20.316 17.7240099,20.316 C18.0295269,20.316 18.538722,20.28 19.0479171,20.196 C19.3916238,20.136 19.7226006,20.352 19.78625,20.688 C19.8498993,21.012 19.6207616,21.324 19.264325,21.384 C18.538722,21.516 17.9022282,21.528 17.7240099,21.528 L17.7240099,21.528 Z M15.1653046,24 C15.1143851,24 15.0507357,23.988 14.9998162,23.976 C12.9757658,23.448 11.6518585,22.74 10.264302,21.456 C8.48211917,19.788 7.50191864,17.568 7.50191864,15.192 C7.50191864,13.248 9.25864167,11.664 11.4227208,11.664 C13.5867999,11.664 15.3435229,13.248 15.3435229,15.192 C15.3435229,16.476 16.5274014,17.52 17.9913373,17.52 C19.4552732,17.52 20.6391517,16.476 20.6391517,15.192 C20.6391517,10.668 16.5019417,6.996 11.4099909,6.996 C7.79470581,6.996 4.48493779,8.892 2.99554218,11.832 C2.49907697,12.804 2.24447943,13.944 2.24447943,15.192 C2.24447943,16.128 2.33358857,17.604 3.09738119,19.524 C3.22467996,19.836 3.05919156,20.184 2.72821476,20.292 C2.39723796,20.412 2.02807152,20.244 1.91350263,19.944 C1.28973866,18.372 0.984221608,16.812 0.984221608,15.192 C0.984221608,13.752 1.27700878,12.444 1.84985325,11.304 C3.54292689,7.956 7.29824061,5.784 11.4099909,5.784 C17.2020849,5.784 21.9121394,9.996 21.9121394,15.18 C21.9121394,17.124 20.1554164,18.708 17.9913373,18.708 C15.8272582,18.708 14.0705352,17.124 14.0705352,15.18 C14.0705352,13.896 12.8866566,12.852 11.4227208,12.852 C9.95878491,12.852 8.77490634,13.896 8.77490634,15.18 C8.77490634,17.232 9.61507823,19.152 11.1553933,20.592 C12.3647317,21.72 13.5231505,22.344 15.3180631,22.812 C15.6617698,22.896 15.852718,23.232 15.7636088,23.544 C15.6999594,23.82 15.432632,24 15.1653046,24 L15.1653046,24 Z" id="Shape" fill="#F04405"></path>
            </g>
        </g>
    </g>
</svg>