<?xml version="1.0" encoding="UTF-8"?>
<svg width="152px" height="24px" viewBox="0 0 152 24" version="1.1" xmlns="http://www.w3.org/2000/svg" xmlns:xlink="http://www.w3.org/1999/xlink">
    <title>logo</title>
    <g id="Onboarding" stroke="none" stroke-width="1" fill="none" fill-rule="evenodd">
        <g id="logo">
            <g id="Group" transform="translate(0.000000, 0.000000)" fill="#f04405">
                <g id="Shape-2" transform="translate(0.000000, 0.000000)">
                    <path d="M18.8569689,2.964 C18.7551299,2.964 18.6532909,2.94 18.5641818,2.892 C16.1200454,1.704 14.0068858,1.2 11.4736403,1.2 C8.95312462,1.2 6.55990774,1.764 4.38309877,2.892 C4.07758172,3.048 3.69568541,2.94 3.51746713,2.652 C3.35197873,2.364 3.46654763,1.992 3.77206467,1.836 C6.1398218,0.624 8.73671671,0 11.4736403,0 C14.1851041,0 16.5528612,0.564 19.1497561,1.824 C19.468003,1.98 19.5825719,2.34 19.4170835,2.628 C19.3025146,2.844 19.0861067,2.964 18.8569689,2.964 L18.8569689,2.964 Z M0.640514929,9.264 C0.513216159,9.264 0.385917388,9.228 0.271348495,9.156 C-0.021438676,8.964 -0.0850880611,8.592 0.118589971,8.316 C1.3788478,6.636 2.9828123,5.316 4.89229385,4.392 C8.88947524,2.448 14.0068858,2.436 18.0167971,4.38 C19.9262786,5.304 21.5302431,6.612 22.7905009,8.28 C22.994179,8.544 22.9305296,8.928 22.6377424,9.12 C22.3449552,9.312 21.9503291,9.252 21.746651,8.976 C20.6009621,7.464 19.1497561,6.276 17.4312227,5.448 C13.777748,3.684 9.10588314,3.684 5.46513832,5.46 C3.73387504,6.3 2.28266906,7.5 1.13698013,9.012 C1.03514112,9.18 0.844192961,9.264 0.640514929,9.264 L0.640514929,9.264 Z M8.59668806,23.748 C8.43119966,23.748 8.26571126,23.688 8.15114237,23.568 C7.04364307,22.524 6.44533885,21.852 5.59243709,20.4 C4.71407557,18.924 4.2558,17.124 4.2558,15.192 C4.2558,11.628 7.48918876,8.724 11.4609104,8.724 C15.432632,8.724 18.6660208,11.628 18.6660208,15.192 C18.6660208,15.528 18.3859635,15.792 18.0295269,15.792 C17.6730904,15.792 17.3930331,15.528 17.3930331,15.192 C17.3930331,12.288 14.7324888,9.924 11.4609104,9.924 C8.189332,9.924 5.5287877,12.288 5.5287877,15.192 C5.5287877,16.92 5.93614377,18.516 6.71266627,19.812 C7.52737839,21.192 8.08749298,21.78 9.06769351,22.716 C9.30956118,22.956 9.30956118,23.328 9.06769351,23.568 C8.92766487,23.688 8.76217647,23.748 8.59668806,23.748 Z M17.7240099,21.528 C16.2091545,21.528 14.8725174,21.168 13.777748,20.46 C11.8809963,19.248 10.7480373,17.28 10.7480373,15.192 C10.7480373,14.856 11.0280946,14.592 11.3845311,14.592 C11.7409677,14.592 12.021025,14.856 12.021025,15.192 C12.021025,16.884 12.9375761,18.48 14.4906211,19.464 C15.3944424,20.04 16.4510222,20.316 17.7240099,20.316 C18.0295269,20.316 18.538722,20.28 19.0479171,20.196 C19.3916238,20.136 19.7226006,20.352 19.78625,20.688 C19.8498993,21.012 19.6207616,21.324 19.264325,21.384 C18.538722,21.516 17.9022282,21.528 17.7240099,21.528 L17.7240099,21.528 Z M15.1653046,24 C15.1143851,24 15.0507357,23.988 14.9998162,23.976 C12.9757658,23.448 11.6518585,22.74 10.264302,21.456 C8.48211917,19.788 7.50191864,17.568 7.50191864,15.192 C7.50191864,13.248 9.25864167,11.664 11.4227208,11.664 C13.5867999,11.664 15.3435229,13.248 15.3435229,15.192 C15.3435229,16.476 16.5274014,17.52 17.9913373,17.52 C19.4552732,17.52 20.6391517,16.476 20.6391517,15.192 C20.6391517,10.668 16.5019417,6.996 11.4099909,6.996 C7.79470581,6.996 4.48493779,8.892 2.99554218,11.832 C2.49907697,12.804 2.24447943,13.944 2.24447943,15.192 C2.24447943,16.128 2.33358857,17.604 3.09738119,19.524 C3.22467996,19.836 3.05919156,20.184 2.72821476,20.292 C2.39723796,20.412 2.02807152,20.244 1.91350263,19.944 C1.28973866,18.372 0.984221608,16.812 0.984221608,15.192 C0.984221608,13.752 1.27700878,12.444 1.84985325,11.304 C3.54292689,7.956 7.29824061,5.784 11.4099909,5.784 C17.2020849,5.784 21.9121394,9.996 21.9121394,15.18 C21.9121394,17.124 20.1554164,18.708 17.9913373,18.708 C15.8272582,18.708 14.0705352,17.124 14.0705352,15.18 C14.0705352,13.896 12.8866566,12.852 11.4227208,12.852 C9.95878491,12.852 8.77490634,13.896 8.77490634,15.18 C8.77490634,17.232 9.61507823,19.152 11.1553933,20.592 C12.3647317,21.72 13.5231505,22.344 15.3180631,22.812 C15.6617698,22.896 15.852718,23.232 15.7636088,23.544 C15.6999594,23.82 15.432632,24 15.1653046,24 L15.1653046,24 Z" id="Shape"></path>
                </g>
            </g>
            <path d="M42.1125714,18.108 C42.4605714,18.108 42.7365714,18 42.9405714,17.784 C43.1445714,17.568 43.2465714,17.286 43.2465714,16.938 L43.2465714,16.938 L43.2465714,12.474 L48.0345714,12.474 C48.7665714,12.474 49.1325714,12.168 49.1325714,11.556 C49.1325714,10.932 48.7665714,10.62 48.0345714,10.62 L48.0345714,10.62 L43.2465714,10.62 L43.2465714,7.164 L48.3945714,7.164 C49.1265714,7.164 49.4925714,6.858 49.4925714,6.246 C49.4925714,5.622 49.1265714,5.31 48.3945714,5.31 L48.3945714,5.31 L42.0765714,5.31 C41.7285714,5.31 41.4555714,5.406 41.2575714,5.598 C41.0595714,5.79 40.9605714,6.06 40.9605714,6.408 L40.9605714,6.408 L40.9605714,16.938 C40.9605714,17.286 41.0655714,17.568 41.2755714,17.784 C41.4855714,18 41.7645714,18.108 42.1125714,18.108 Z M52.9151429,7.416 C53.3231429,7.416 53.6471429,7.305 53.8871429,7.083 C54.1271429,6.861 54.2471429,6.57 54.2471429,6.21 C54.2471429,5.85 54.1241429,5.562 53.8781429,5.346 C53.6321429,5.13 53.3111429,5.022 52.9151429,5.022 C52.5071429,5.022 52.1831429,5.13 51.9431429,5.346 C51.7031429,5.562 51.5831429,5.85 51.5831429,6.21 C51.5831429,6.57 51.7031429,6.861 51.9431429,7.083 C52.1831429,7.305 52.5071429,7.416 52.9151429,7.416 Z M52.9151429,18.108 C53.2391429,18.108 53.5091429,18.015 53.7251429,17.829 C53.9411429,17.643 54.0491429,17.376 54.0491429,17.028 L54.0491429,17.028 L54.0491429,10.08 C54.0491429,9.732 53.9411429,9.468 53.7251429,9.288 C53.5091429,9.108 53.2391429,9.018 52.9151429,9.018 C52.5911429,9.018 52.3241429,9.108 52.1141429,9.288 C51.9041429,9.468 51.7991429,9.732 51.7991429,10.08 L51.7991429,10.08 L51.7991429,17.028 C51.7991429,17.376 51.9041429,17.643 52.1141429,17.829 C52.3241429,18.015 52.5911429,18.108 52.9151429,18.108 Z M63.6277143,18.108 C63.9757143,18.108 64.2487143,18.012 64.4467143,17.82 C64.6447143,17.628 64.7437143,17.364 64.7437143,17.028 L64.7437143,17.028 L64.7437143,12.6 C64.7437143,11.388 64.4857143,10.482 63.9697143,9.882 C63.4537143,9.282 62.6677143,8.982 61.6117143,8.982 C60.9757143,8.982 60.4057143,9.114 59.9017143,9.378 C59.3977143,9.642 58.9957143,10.02 58.6957143,10.512 L58.6957143,10.512 L58.6957143,10.026 C58.6957143,9.726 58.5967143,9.483 58.3987143,9.297 C58.2007143,9.111 57.9457143,9.018 57.6337143,9.018 C57.2857143,9.018 57.0097143,9.114 56.8057143,9.306 C56.6017143,9.498 56.4997143,9.75 56.4997143,10.062 L56.4997143,10.062 L56.4997143,17.028 C56.4997143,17.364 56.5987143,17.628 56.7967143,17.82 C56.9947143,18.012 57.2677143,18.108 57.6157143,18.108 C57.9637143,18.108 58.2397143,18.012 58.4437143,17.82 C58.6477143,17.628 58.7497143,17.364 58.7497143,17.028 L58.7497143,17.028 L58.7497143,13.014 C58.7497143,12.33 58.9447143,11.784 59.3347143,11.376 C59.7247143,10.968 60.2437143,10.764 60.8917143,10.764 C61.4437143,10.764 61.8487143,10.92 62.1067143,11.232 C62.3647143,11.544 62.4937143,12.042 62.4937143,12.726 L62.4937143,12.726 L62.4937143,17.028 C62.4937143,17.364 62.5957143,17.628 62.7997143,17.82 C63.0037143,18.012 63.2797143,18.108 63.6277143,18.108 Z M71.1722857,21.384 C72.6722857,21.384 73.8062857,21.03 74.5742857,20.322 C75.3422857,19.614 75.7262857,18.57 75.7262857,17.19 L75.7262857,17.19 L75.7262857,10.08 C75.7262857,9.756 75.6242857,9.498 75.4202857,9.306 C75.2162857,9.114 74.9462857,9.018 74.6102857,9.018 C74.2742857,9.018 74.0042857,9.114 73.8002857,9.306 C73.5962857,9.498 73.4942857,9.75 73.4942857,10.062 L73.4942857,10.062 L73.4942857,10.53 C73.2302857,10.038 72.8462857,9.657 72.3422857,9.387 C71.8382857,9.117 71.2622857,8.982 70.6142857,8.982 C69.8462857,8.982 69.1622857,9.165 68.5622857,9.531 C67.9622857,9.897 67.4972857,10.413 67.1672857,11.079 C66.8372857,11.745 66.6722857,12.51 66.6722857,13.374 C66.6722857,14.238 66.8402857,15 67.1762857,15.66 C67.5122857,16.32 67.9772857,16.833 68.5712857,17.199 C69.1652857,17.565 69.8462857,17.748 70.6142857,17.748 C71.2622857,17.748 71.8382857,17.613 72.3422857,17.343 C72.8462857,17.073 73.2302857,16.692 73.4942857,16.2 L73.4942857,16.2 L73.4942857,17.352 C73.4942857,18.888 72.7082857,19.656 71.1362857,19.656 C70.6922857,19.656 70.2992857,19.608 69.9572857,19.512 C69.6152857,19.416 69.2282857,19.278 68.7962857,19.098 C68.6282857,19.026 68.4662857,18.963 68.3102857,18.909 C68.1542857,18.855 68.0222857,18.828 67.9142857,18.828 C67.7102857,18.828 67.5452857,18.906 67.4192857,19.062 C67.2932857,19.218 67.2302857,19.428 67.2302857,19.692 C67.2302857,20.064 67.4522857,20.382 67.8962857,20.646 C68.7722857,21.138 69.8642857,21.384 71.1722857,21.384 Z M71.2082857,16.002 C70.5002857,16.002 69.9422857,15.768 69.5342857,15.3 C69.1262857,14.832 68.9222857,14.19 68.9222857,13.374 C68.9222857,12.546 69.1262857,11.898 69.5342857,11.43 C69.9422857,10.962 70.5002857,10.728 71.2082857,10.728 C71.9282857,10.728 72.4892857,10.962 72.8912857,11.43 C73.2932857,11.898 73.4942857,12.546 73.4942857,13.374 C73.4942857,14.19 73.2932857,14.832 72.8912857,15.3 C72.4892857,15.768 71.9282857,16.002 71.2082857,16.002 Z M82.2988571,18.144 C82.7668571,18.144 83.2588571,18.075 83.7748571,17.937 C84.2908571,17.799 84.7528571,17.616 85.1608571,17.388 C85.6048571,17.136 85.8268571,16.824 85.8268571,16.452 C85.8268571,16.188 85.7638571,15.978 85.6378571,15.822 C85.5118571,15.666 85.3468571,15.588 85.1428571,15.588 C84.9748571,15.588 84.7108571,15.684 84.3508571,15.876 C83.9788571,16.044 83.6458571,16.176 83.3518571,16.272 C83.0578571,16.368 82.7188571,16.416 82.3348571,16.416 C81.5788571,16.416 81.0028571,16.221 80.6068571,15.831 C80.2108571,15.441 79.9768571,14.832 79.9048571,14.004 L79.9048571,14.004 L85.2148571,14.004 C85.6708571,14.004 85.8988571,13.746 85.8988571,13.23 C85.8988571,12.366 85.7368571,11.616 85.4128571,10.98 C85.0888571,10.344 84.6328571,9.852 84.0448571,9.504 C83.4568571,9.156 82.7668571,8.982 81.9748571,8.982 C81.1468571,8.982 80.4058571,9.174 79.7518571,9.558 C79.0978571,9.942 78.5908571,10.482 78.2308571,11.178 C77.8708571,11.874 77.6908571,12.672 77.6908571,13.572 C77.6908571,14.988 78.1048571,16.104 78.9328571,16.92 C79.7608571,17.736 80.8828571,18.144 82.2988571,18.144 Z M83.9728571,12.798 L79.9048571,12.798 C79.9768571,12.078 80.1958571,11.526 80.5618571,11.142 C80.9278571,10.758 81.4168571,10.566 82.0288571,10.566 C82.6288571,10.566 83.0968571,10.755 83.4328571,11.133 C83.7688571,11.511 83.9488571,12.066 83.9728571,12.798 L83.9728571,12.798 Z M88.9794286,18.108 C89.3034286,18.108 89.5734286,18.015 89.7894286,17.829 C90.0054286,17.643 90.1134286,17.376 90.1134286,17.028 L90.1134286,17.028 L90.1134286,13.248 C90.1134286,12.636 90.2784286,12.126 90.6084286,11.718 C90.9384286,11.31 91.4574286,11.07 92.1654286,10.998 L92.1654286,10.998 L92.7054286,10.944 C93.1134286,10.896 93.3954286,10.794 93.5514286,10.638 C93.7074286,10.482 93.7854286,10.242 93.7854286,9.918 C93.7854286,9.606 93.6954286,9.372 93.5154286,9.216 C93.3354286,9.06 93.0894286,8.994 92.7774286,9.018 L92.7774286,9.018 L92.5254286,9.036 C91.9734286,9.072 91.4724286,9.234 91.0224286,9.522 C90.5724286,9.81 90.2334286,10.218 90.0054286,10.746 L90.0054286,10.746 L90.0054286,10.026 C90.0054286,9.702 89.9094286,9.453 89.7174286,9.279 C89.5254286,9.105 89.2734286,9.018 88.9614286,9.018 C88.6494286,9.018 88.3884286,9.108 88.1784286,9.288 C87.9684286,9.468 87.8634286,9.726 87.8634286,10.062 L87.8634286,10.062 L87.8634286,17.028 C87.8634286,17.376 87.9684286,17.643 88.1784286,17.829 C88.3884286,18.015 88.6554286,18.108 88.9794286,18.108 Z M96.02,21.33 C96.356,21.33 96.626,21.24 96.83,21.06 C97.034,20.88 97.136,20.634 97.136,20.322 L97.136,20.322 L97.136,16.65 C97.4,17.118 97.778,17.484 98.27,17.748 C98.762,18.012 99.32,18.144 99.944,18.144 C100.712,18.144 101.39,17.958 101.978,17.586 C102.566,17.214 103.025,16.686 103.355,16.002 C103.685,15.318 103.85,14.52 103.85,13.608 C103.85,12.696 103.685,11.889 103.355,11.187 C103.025,10.485 102.563,9.942 101.969,9.558 C101.375,9.174 100.7,8.982 99.944,8.982 C99.308,8.982 98.741,9.117 98.243,9.387 C97.745,9.657 97.364,10.038 97.1,10.53 L97.1,10.53 L97.1,10.08 C97.1,9.756 96.998,9.498 96.794,9.306 C96.59,9.114 96.32,9.018 95.984,9.018 C95.648,9.018 95.381,9.114 95.183,9.306 C94.985,9.498 94.886,9.756 94.886,10.08 L94.886,10.08 L94.886,20.286 C94.886,20.598 94.991,20.85 95.201,21.042 C95.411,21.234 95.684,21.33 96.02,21.33 Z M99.35,16.398 C98.63,16.398 98.075,16.152 97.685,15.66 C97.295,15.168 97.1,14.472 97.1,13.572 C97.1,12.66 97.295,11.958 97.685,11.466 C98.075,10.974 98.63,10.728 99.35,10.728 C100.058,10.728 100.61,10.98 101.006,11.484 C101.402,11.988 101.6,12.696 101.6,13.608 C101.6,14.496 101.402,15.183 101.006,15.669 C100.61,16.155 100.058,16.398 99.35,16.398 Z M106.948571,18.108 C107.272571,18.108 107.542571,18.015 107.758571,17.829 C107.974571,17.643 108.082571,17.376 108.082571,17.028 L108.082571,17.028 L108.082571,13.248 C108.082571,12.636 108.247571,12.126 108.577571,11.718 C108.907571,11.31 109.426571,11.07 110.134571,10.998 L110.134571,10.998 L110.674571,10.944 C111.082571,10.896 111.364571,10.794 111.520571,10.638 C111.676571,10.482 111.754571,10.242 111.754571,9.918 C111.754571,9.606 111.664571,9.372 111.484571,9.216 C111.304571,9.06 111.058571,8.994 110.746571,9.018 L110.746571,9.018 L110.494571,9.036 C109.942571,9.072 109.441571,9.234 108.991571,9.522 C108.541571,9.81 108.202571,10.218 107.974571,10.746 L107.974571,10.746 L107.974571,10.026 C107.974571,9.702 107.878571,9.453 107.686571,9.279 C107.494571,9.105 107.242571,9.018 106.930571,9.018 C106.618571,9.018 106.357571,9.108 106.147571,9.288 C105.937571,9.468 105.832571,9.726 105.832571,10.062 L105.832571,10.062 L105.832571,17.028 C105.832571,17.376 105.937571,17.643 106.147571,17.829 C106.357571,18.015 106.624571,18.108 106.948571,18.108 Z M113.971143,7.416 C114.379143,7.416 114.703143,7.305 114.943143,7.083 C115.183143,6.861 115.303143,6.57 115.303143,6.21 C115.303143,5.85 115.180143,5.562 114.934143,5.346 C114.688143,5.13 114.367143,5.022 113.971143,5.022 C113.563143,5.022 113.239143,5.13 112.999143,5.346 C112.759143,5.562 112.639143,5.85 112.639143,6.21 C112.639143,6.57 112.759143,6.861 112.999143,7.083 C113.239143,7.305 113.563143,7.416 113.971143,7.416 Z M113.971143,18.108 C114.295143,18.108 114.565143,18.015 114.781143,17.829 C114.997143,17.643 115.105143,17.376 115.105143,17.028 L115.105143,17.028 L115.105143,10.08 C115.105143,9.732 114.997143,9.468 114.781143,9.288 C114.565143,9.108 114.295143,9.018 113.971143,9.018 C113.647143,9.018 113.380143,9.108 113.170143,9.288 C112.960143,9.468 112.855143,9.732 112.855143,10.08 L112.855143,10.08 L112.855143,17.028 C112.855143,17.376 112.960143,17.643 113.170143,17.829 C113.380143,18.015 113.647143,18.108 113.971143,18.108 Z M124.683714,18.108 C125.031714,18.108 125.304714,18.012 125.502714,17.82 C125.700714,17.628 125.799714,17.364 125.799714,17.028 L125.799714,17.028 L125.799714,12.6 C125.799714,11.388 125.541714,10.482 125.025714,9.882 C124.509714,9.282 123.723714,8.982 122.667714,8.982 C122.031714,8.982 121.461714,9.114 120.957714,9.378 C120.453714,9.642 120.051714,10.02 119.751714,10.512 L119.751714,10.512 L119.751714,10.026 C119.751714,9.726 119.652714,9.483 119.454714,9.297 C119.256714,9.111 119.001714,9.018 118.689714,9.018 C118.341714,9.018 118.065714,9.114 117.861714,9.306 C117.657714,9.498 117.555714,9.75 117.555714,10.062 L117.555714,10.062 L117.555714,17.028 C117.555714,17.364 117.654714,17.628 117.852714,17.82 C118.050714,18.012 118.323714,18.108 118.671714,18.108 C119.019714,18.108 119.295714,18.012 119.499714,17.82 C119.703714,17.628 119.805714,17.364 119.805714,17.028 L119.805714,17.028 L119.805714,13.014 C119.805714,12.33 120.000714,11.784 120.390714,11.376 C120.780714,10.968 121.299714,10.764 121.947714,10.764 C122.499714,10.764 122.904714,10.92 123.162714,11.232 C123.420714,11.544 123.549714,12.042 123.549714,12.726 L123.549714,12.726 L123.549714,17.028 C123.549714,17.364 123.651714,17.628 123.855714,17.82 C124.059714,18.012 124.335714,18.108 124.683714,18.108 Z M132.336286,18.09 C132.768286,18.114 133.101286,18.051 133.335286,17.901 C133.569286,17.751 133.686286,17.532 133.686286,17.244 C133.686286,16.74 133.386286,16.47 132.786286,16.434 L132.786286,16.434 L132.300286,16.398 C131.484286,16.338 131.076286,15.864 131.076286,14.976 L131.076286,14.976 L131.076286,10.89 L132.606286,10.89 C132.930286,10.89 133.179286,10.818 133.353286,10.674 C133.527286,10.53 133.614286,10.32 133.614286,10.044 C133.614286,9.768 133.527286,9.558 133.353286,9.414 C133.179286,9.27 132.930286,9.198 132.606286,9.198 L132.606286,9.198 L131.076286,9.198 L131.076286,7.542 C131.076286,7.218 130.974286,6.96 130.770286,6.768 C130.566286,6.576 130.296286,6.48 129.960286,6.48 C129.612286,6.48 129.336286,6.576 129.132286,6.768 C128.928286,6.96 128.826286,7.218 128.826286,7.542 L128.826286,7.542 L128.826286,9.198 L127.926286,9.198 C127.602286,9.198 127.353286,9.27 127.179286,9.414 C127.005286,9.558 126.918286,9.768 126.918286,10.044 C126.918286,10.32 127.005286,10.53 127.179286,10.674 C127.353286,10.818 127.602286,10.89 127.926286,10.89 L127.926286,10.89 L128.826286,10.89 L128.826286,14.814 C128.826286,16.83 129.834286,17.91 131.850286,18.054 L131.850286,18.054 L132.336286,18.09 Z M134.781021,18.1106016 L134.948857,18.108 L135.524857,18.072 C137.768857,17.904 138.890857,16.686 138.890857,14.418 L138.890857,14.418 L138.890857,6.372 C138.890857,6.024 138.785857,5.745 138.575857,5.535 C138.365857,5.325 138.080857,5.22 137.720857,5.22 C137.372857,5.22 137.093857,5.325 136.883857,5.535 C136.673857,5.745 136.568857,6.024 136.568857,6.372 L136.568857,6.372 L136.568857,14.418 C136.568857,15.006 136.442857,15.444 136.190857,15.732 C135.938857,16.02 135.566857,16.176 135.074857,16.2 L135.074857,16.2 L134.498857,16.236 C134.174857,16.26 133.937857,16.347 133.787857,16.497 C133.637857,16.647 133.562857,16.866 133.562857,17.154 C133.562857,17.826 134.024857,18.144 134.948857,18.108 L134.781021,18.1106016 Z M146.147429,18.162 C147.119429,18.162 147.980429,18.003 148.730429,17.685 C149.480429,17.367 150.062429,16.923 150.476429,16.353 C150.890429,15.783 151.097429,15.126 151.097429,14.382 C151.097429,13.698 150.920429,13.128 150.566429,12.672 C150.212429,12.216 149.702429,11.841 149.036429,11.547 C148.370429,11.253 147.503429,10.986 146.435429,10.746 C145.427429,10.518 144.713429,10.272 144.293429,10.008 C143.873429,9.744 143.663429,9.366 143.663429,8.874 C143.663429,8.286 143.900429,7.827 144.374429,7.497 C144.848429,7.167 145.493429,7.002 146.309429,7.002 C146.981429,7.002 147.548429,7.089 148.010429,7.263 C148.472429,7.437 148.949429,7.704 149.441429,8.064 C149.609429,8.16 149.744429,8.226 149.846429,8.262 C149.948429,8.298 150.059429,8.316 150.179429,8.316 C150.383429,8.316 150.560429,8.223 150.710429,8.037 C150.860429,7.851 150.935429,7.632 150.935429,7.38 C150.935429,7.188 150.902429,7.029 150.836429,6.903 C150.770429,6.777 150.659429,6.648 150.503429,6.516 C149.423429,5.604 148.025429,5.148 146.309429,5.148 C145.373429,5.148 144.530429,5.313 143.780429,5.643 C143.030429,5.973 142.445429,6.432 142.025429,7.02 C141.605429,7.608 141.395429,8.274 141.395429,9.018 C141.395429,9.738 141.563429,10.332 141.899429,10.8 C142.235429,11.268 142.733429,11.652 143.393429,11.952 C144.053429,12.252 144.911429,12.516 145.967429,12.744 C146.987429,12.972 147.716429,13.209 148.154429,13.455 C148.592429,13.701 148.811429,14.052 148.811429,14.508 C148.811429,15.096 148.577429,15.543 148.109429,15.849 C147.641429,16.155 146.969429,16.308 146.093429,16.308 C145.409429,16.308 144.785429,16.224 144.221429,16.056 C143.657429,15.888 143.117429,15.618 142.601429,15.246 C142.325429,15.078 142.079429,14.994 141.863429,14.994 C141.659429,14.994 141.482429,15.087 141.332429,15.273 C141.182429,15.459 141.107429,15.678 141.107429,15.93 C141.107429,16.302 141.245429,16.59 141.521429,16.794 C142.037429,17.214 142.706429,17.547 143.528429,17.793 C144.350429,18.039 145.223429,18.162 146.147429,18.162 Z" id="FingerprintJS" fill="#333333" fill-rule="nonzero"></path>
        </g>
    </g>
</svg>