<svg
  xmlns="http://www.w3.org/2000/svg"
  viewBox="0 0 37.72 48.04"
  width="38"
  height="48"
  fill="#0d102b"
>
  <defs />
  <path
    d="M19 31.16A12.47 12.47 0 1131.44 18.7 12.47 12.47 0 0119 31.16M19 0a18.7 18.7 0 1018.7 18.7A18.69 18.69 0 0019 0z"
  />
  <path
    d="M19 12.29a6.41 6.41 0 106.41 6.41A6.4 6.4 0 0019 12.29m-16.91 30H0V41h5.64v1.28H3.57v5.6H2.06v-5.6M5 47.87h1.51l.54-1.53h2.57l.52 1.53h1.57L9.14 41H7.59L5 47.87m3.36-5.18l.87 2.52H7.45zm4 5.18h1.51v-2.68h1.52c.76 0 1 .31 1.14 1a7.88 7.88 0 00.24 1.64h1.52a3.75 3.75 0 01-.29-1.59c-.05-.69-.26-1.41-1-1.6a1.69 1.69 0 001-1.75A1.89 1.89 0 0016 41h-3.69v6.88m1.51-5.7h1.66c.67 0 1 .29 1 .95s-.37 1-1 1h-1.66v-1.96zM24 47.09a2.31 2.31 0 01-1.88.95 3.32 3.32 0 01-3.38-3.58 3.33 3.33 0 013.38-3.63 2.78 2.78 0 012.9 2.43h-1.41a1.41 1.41 0 00-1.45-1.16c-1.36 0-1.87 1.16-1.87 2.36s.51 2.3 1.87 2.3a1.47 1.47 0 001.63-1.48h-1.52v-1.12h2.89v3.71h-1l-.16-.78M26.19 41h5.15v1.28h-3.63v1.47H31v1.18h-3.29v1.67h3.7v1.27h-5.22V41m8 1.28h-2.1V41h5.63v1.28h-2.06v5.6h-1.51v-5.6"
  />
</svg>
