<?xml version="1.0" encoding="utf-8"?>
<!-- Generator: Adobe Illustrator 16.0.0, SVG Export Plug-In . SVG Version: 6.00 Build 0)  -->
<!DOCTYPE svg PUBLIC "-//W3C//DTD SVG 1.1//EN" "http://www.w3.org/Graphics/SVG/1.1/DTD/svg11.dtd">
<svg version="1.1" id="Layer_1" xmlns="http://www.w3.org/2000/svg" xmlns:xlink="http://www.w3.org/1999/xlink" x="0px" y="0px"
	 width="200px" height="200px" viewBox="0 0 200 200" enable-background="new 0 0 200 200" xml:space="preserve">
<g>
	<g>
		<path fill="#353F49" d="M34.357,157.801c-2.929,0-5.325-2.384-5.325-5.319V65.306c0-2.926,2.396-5.317,5.325-5.317h131.294
			c2.929,0,5.316,2.392,5.316,5.317v87.175c0,2.936-2.388,5.319-5.316,5.319H34.357z"/>
		<path fill="#474F59" d="M165.035,114.288c0,1.301-1.057,2.366-2.365,2.366h-0.581c-1.311,0-2.374-1.065-2.374-2.366v-10.791
			c0-1.298,1.063-2.369,2.374-2.369h0.581c1.309,0,2.365,1.071,2.365,2.369V114.288z"/>
		<path fill="#474F59" d="M38.402,108.905c0,1.346-1.084,2.422-2.441,2.422c-1.332,0-2.436-1.076-2.436-2.422
			c0-1.344,1.104-2.442,2.436-2.442C37.318,106.463,38.402,107.562,38.402,108.905z"/>
		<path fill="#353F49" d="M36.983,108.897c0,0.564-0.456,1.008-1.022,1.008c-0.557,0-1.009-0.443-1.009-1.008
			s0.452-1.021,1.009-1.021C36.527,107.877,36.983,108.333,36.983,108.897z"/>
		<rect x="42.901" y="65.545" fill="#FFFFFF" width="110.882" height="86.714"/>
		<g>
			<g>
				<rect x="48.967" y="86.317" fill="#F77B55" width="45.812" height="25.774"/>
				<polygon fill="#FFFFFF" points="67.931,94.648 75.812,99.195 67.931,103.756 				"/>
			</g>
			<g>
				<rect x="101.677" y="86.317" fill="#474F59" width="18.864" height="10.612"/>
				<polygon fill="#CCCBCA" points="109.491,89.757 112.734,91.617 109.491,93.504 				"/>
			</g>
			<g>
				<rect x="101.677" y="101.466" fill="#474F59" width="18.864" height="10.625"/>
				<polygon fill="#CCCBCA" points="109.491,104.903 112.734,106.788 109.491,108.653 				"/>
			</g>
			<g>
				<rect x="101.677" y="116.635" fill="#474F59" width="18.864" height="10.606"/>
				<polygon fill="#CCCBCA" points="109.491,120.074 112.734,121.941 109.491,123.804 				"/>
			</g>
			<g>
				<g>
					<rect x="124.388" y="92.501" fill="#D9D8D7" width="23.332" height="1.338"/>
					<rect x="124.388" y="95.604" fill="#D9D8D7" width="23.332" height="1.326"/>
					<rect x="124.388" y="89.414" fill="#D9D8D7" width="23.332" height="1.326"/>
					<rect x="124.388" y="86.317" fill="#D9D8D7" width="13.291" height="1.341"/>
				</g>
			</g>
			<g>
				<g>
					<rect x="59.125" y="137.978" fill="#D9D8D7" width="35.65" height="1.331"/>
					<rect x="59.125" y="141.058" fill="#D9D8D7" width="17.825" height="1.338"/>
					<rect x="59.125" y="134.873" fill="#D9D8D7" width="35.65" height="1.338"/>
					<rect x="48.967" y="131.788" fill="#D9D8D7" width="20.308" height="1.338"/>
				</g>
			</g>
			<g>
				<g>
					<rect x="59.125" y="122.821" fill="#D9D8D7" width="35.65" height="1.333"/>
					<rect x="59.125" y="125.906" fill="#D9D8D7" width="27.348" height="1.335"/>
					<rect x="59.125" y="119.722" fill="#D9D8D7" width="32.843" height="1.338"/>
					<rect x="48.967" y="116.635" fill="#D9D8D7" width="33.241" height="1.34"/>
				</g>
			</g>
			<g>
				<g>
					<rect x="124.388" y="107.655" fill="#D9D8D7" width="23.332" height="1.335"/>
					<rect x="124.388" y="110.75" fill="#D9D8D7" width="23.332" height="1.341"/>
					<rect x="124.388" y="104.57" fill="#D9D8D7" width="23.332" height="1.338"/>
					<rect x="124.388" y="101.466" fill="#D9D8D7" width="13.291" height="1.341"/>
				</g>
			</g>
			<g>
				<g>
					<rect x="124.388" y="122.821" fill="#D9D8D7" width="23.332" height="1.333"/>
					<rect x="124.388" y="125.906" fill="#D9D8D7" width="23.332" height="1.335"/>
					<rect x="124.388" y="119.722" fill="#D9D8D7" width="23.332" height="1.338"/>
					<rect x="124.388" y="116.635" fill="#D9D8D7" width="13.291" height="1.34"/>
				</g>
			</g>
			<g>
				<rect x="101.677" y="131.788" fill="#474F59" width="18.864" height="10.607"/>
				<polygon fill="#CCCBCA" points="109.491,135.226 112.734,137.093 109.491,138.96 				"/>
			</g>
			<g>
				<g>
					<rect x="124.388" y="137.978" fill="#D9D8D7" width="23.332" height="1.331"/>
					<rect x="124.388" y="141.058" fill="#D9D8D7" width="23.332" height="1.338"/>
					<rect x="124.388" y="134.873" fill="#D9D8D7" width="23.332" height="1.338"/>
					<rect x="124.388" y="131.788" fill="#D9D8D7" width="13.291" height="1.338"/>
				</g>
			</g>
			<g>
				<rect x="48.967" y="71.612" fill="#F77B55" width="98.753" height="9.183"/>
				<rect x="51.983" y="74.628" fill="#FFFFFF" width="68.558" height="3.152"/>
			</g>
		</g>
	</g>
	<g>
		<g>
			<rect x="10.731" y="51.314" fill="#F77B55" width="36.08" height="20.297"/>
			<polygon fill="#FFFFFF" points="25.668,57.877 31.874,61.456 25.668,65.049 			"/>
		</g>
		<g>
			<rect y="95.84" fill="#474F59" width="24.622" height="13.853"/>
			<polygon fill="#CCCBCA" points="10.194,100.319 14.428,102.764 10.194,105.218 			"/>
		</g>
		<g>
			<rect x="147.72" y="42.199" fill="#474F59" width="52.28" height="29.413"/>
			<polygon fill="#CCCBCA" points="169.362,51.708 178.356,56.896 169.362,62.103 			"/>
		</g>
		<g>
			<rect x="175.995" y="130.132" fill="#F77B55" width="20.052" height="11.28"/>
			<polygon fill="#FFFFFF" points="184.297,133.779 187.746,135.77 184.297,137.766 			"/>
		</g>
	</g>
</g>
</svg>
