<?xml version="1.0" encoding="utf-8"?>
<!-- Generator: Adobe Illustrator 16.0.0, SVG Export Plug-In . SVG Version: 6.00 Build 0)  -->
<!DOCTYPE svg PUBLIC "-//W3C//DTD SVG 1.1//EN" "http://www.w3.org/Graphics/SVG/1.1/DTD/svg11.dtd">
<svg version="1.1" id="Layer_1" xmlns="http://www.w3.org/2000/svg" xmlns:xlink="http://www.w3.org/1999/xlink" x="0px" y="0px"
	 width="200px" height="200px" viewBox="0 0 200 200" enable-background="new 0 0 200 200" xml:space="preserve">
<g>
	<g>
		<g>
			<rect x="3.004" y="84.869" fill="#474F59" width="1.323" height="21.833"/>
			<g>
				<g>
					<rect y="92.773" fill="#E6E5E5" width="7.334" height="13.929"/>
				</g>
			</g>
		</g>
		<g>
			<rect x="13.141" y="52.045" fill="#474F59" width="1.323" height="61.022"/>
			<g>
				<g>
					<rect x="10.139" y="57.98" fill="#E6E5E5" width="7.33" height="34.687"/>
				</g>
			</g>
		</g>
		<g>
			<rect x="23.279" y="85.003" fill="#474F59" width="1.323" height="43.166"/>
			<g>
				<g>
					<rect x="20.276" y="92.909" fill="#F77B55" width="7.332" height="21.133"/>
				</g>
			</g>
		</g>
		<g>
			<rect x="33.418" y="119.065" fill="#474F59" width="1.323" height="21.014"/>
			<g>
				<g>
					<rect x="30.414" y="121.362" fill="#F77B55" width="7.332" height="15.378"/>
				</g>
			</g>
		</g>
		<g>
			<rect x="43.553" y="121.362" fill="#474F59" width="1.323" height="6.162"/>
			<g>
				<g>
					<rect x="40.554" y="122.8" fill="#F77B55" width="7.328" height="2.3"/>
				</g>
			</g>
		</g>
		<g>
			<rect x="53.695" y="122.8" fill="#474F59" width="1.323" height="54.592"/>
			<g>
				<g>
					<rect x="50.689" y="125.344" fill="#F77B55" width="7.331" height="34.794"/>
				</g>
			</g>
		</g>
		<g>
			<rect x="63.831" y="156.712" fill="#474F59" width="1.323" height="16.939"/>
			<g>
				<g>
					<rect x="60.826" y="158.153" fill="#F77B55" width="7.333" height="5.341"/>
				</g>
			</g>
		</g>
		<g>
			<rect x="73.97" y="143.798" fill="#474F59" width="1.323" height="27.48"/>
			<g>
				<g>
					<rect x="70.968" y="151.65" fill="#E6E5E5" width="7.325" height="14.836"/>
				</g>
			</g>
		</g>
		<g>
			<rect x="84.106" y="51.072" fill="#474F59" width="1.323" height="110.173"/>
			<g>
				<g>
					<rect x="81.102" y="93.919" fill="#E6E5E5" width="7.333" height="66.965"/>
				</g>
			</g>
		</g>
		<g>
			<rect x="94.246" y="61.994" fill="#474F59" width="1.323" height="62.605"/>
			<g>
				<g>
					<rect x="91.241" y="65.849" fill="#E6E5E5" width="7.331" height="53.025"/>
				</g>
			</g>
		</g>
		<g>
			<rect x="104.436" y="89.25" fill="#474F59" width="1.322" height="31.182"/>
			<g>
				<g>
					<rect x="101.429" y="89.25" fill="#F77B55" width="7.33" height="17.05"/>
				</g>
			</g>
		</g>
		<g>
			<rect x="114.569" y="91.837" fill="#474F59" width="1.322" height="27.046"/>
			<g>
				<g>
					<rect x="111.565" y="93.917" fill="#F77B55" width="7.333" height="21.846"/>
				</g>
			</g>
		</g>
		<g>
			<rect x="124.707" y="61.062" fill="#474F59" width="1.322" height="51.587"/>
			<g>
				<g>
					<rect x="121.704" y="68.963" fill="#E6E5E5" width="7.332" height="38.273"/>
				</g>
			</g>
		</g>
		<g>
			<rect x="134.847" y="52.127" fill="#474F59" width="1.323" height="36.285"/>
			<g>
				<g>
					<rect x="131.842" y="60.03" fill="#E6E5E5" width="7.332" height="14.224"/>
				</g>
			</g>
		</g>
		<g>
			<rect x="144.979" y="54.617" fill="#474F59" width="1.323" height="13.631"/>
			<g>
				<g>
					<rect x="141.979" y="58.042" fill="#E6E5E5" width="7.331" height="7.807"/>
				</g>
			</g>
		</g>
		<g>
			<rect x="155.123" y="22.608" fill="#474F59" width="1.322" height="52.607"/>
			<g>
				<g>
					<rect x="152.116" y="34.988" fill="#E6E5E5" width="7.333" height="36.06"/>
				</g>
			</g>
		</g>
		<g>
			<rect x="165.259" y="46.093" fill="#474F59" width="1.323" height="29.934"/>
			<g>
				<g>
					<rect x="162.255" y="51.072" fill="#F77B55" width="7.331" height="10.826"/>
				</g>
			</g>
		</g>
		<g>
			<rect x="175.396" y="71.669" fill="#474F59" width="1.323" height="11.733"/>
			<g>
				<g>
					<rect x="172.395" y="73.634" fill="#F77B55" width="7.325" height="5.316"/>
				</g>
			</g>
		</g>
		<g>
			<rect x="185.533" y="65.849" fill="#474F59" width="1.323" height="58.711"/>
			<g>
				<g>
					<rect x="182.531" y="68.027" fill="#E6E5E5" width="7.33" height="41.73"/>
				</g>
			</g>
		</g>
		<g>
			<rect x="195.672" y="41.611" fill="#474F59" width="1.323" height="46.487"/>
			<g>
				<g>
					<rect x="192.666" y="47.122" fill="#E6E5E5" width="7.334" height="26.82"/>
				</g>
			</g>
		</g>
	</g>
	<g>
		<g>
			<rect x="118.898" y="174.084" fill="#474F59" width="3.31" height="3.308"/>
			<rect x="118.898" y="165.816" fill="#474F59" width="3.31" height="3.307"/>
			<rect x="118.898" y="157.548" fill="#474F59" width="3.31" height="3.307"/>
		</g>
		<g>
			<rect x="127.169" y="157.548" fill="#CCCBCA" width="72.831" height="3.31"/>
			<rect x="127.169" y="165.818" fill="#CCCBCA" width="72.831" height="3.307"/>
			<rect x="127.169" y="174.084" fill="#CCCBCA" width="36.414" height="3.308"/>
		</g>
	</g>
	<g>
		<rect y="22.608" fill="#474F59" width="37.745" height="19.844"/>
		<g>
			<rect x="8.951" y="30.875" fill="#FFFFFF" width="3.307" height="3.31"/>
			<rect x="17.219" y="30.875" fill="#FFFFFF" width="3.307" height="3.31"/>
			<rect x="25.487" y="30.875" fill="#FFFFFF" width="3.308" height="3.31"/>
		</g>
		<g>
			<rect x="42.739" y="22.608" fill="#CCCBCA" width="56.306" height="3.31"/>
			<rect x="42.739" y="30.879" fill="#CCCBCA" width="29.36" height="3.307"/>
		</g>
	</g>
</g>
</svg>
