<?xml version="1.0" encoding="utf-8"?>
<!-- Generator: Adobe Illustrator 16.0.0, SVG Export Plug-In . SVG Version: 6.00 Build 0)  -->
<!DOCTYPE svg PUBLIC "-//W3C//DTD SVG 1.1//EN" "http://www.w3.org/Graphics/SVG/1.1/DTD/svg11.dtd">
<svg version="1.1" id="Layer_1" xmlns="http://www.w3.org/2000/svg" xmlns:xlink="http://www.w3.org/1999/xlink" x="0px" y="0px"
	 width="200px" height="200px" viewBox="0 0 200 200" enable-background="new 0 0 200 200" xml:space="preserve">
<g>
	<g>
		<g>
			<rect x="35.182" y="38.175" fill="#F2F2F2" width="118.565" height="120.061"/>
			<rect x="35.182" y="27.581" fill="#353F49" width="118.565" height="10.595"/>
		</g>
		<g>
			<rect x="45.271" y="56.371" fill="#FDCA5C" width="98.387" height="41.383"/>
			<g>
				<g>
					<rect x="45.271" y="45.605" fill="#F77B55" width="20.13" height="3.336"/>
					<rect x="71.354" y="45.605" fill="#F77B55" width="20.132" height="3.336"/>
					<rect x="97.442" y="45.605" fill="#F77B55" width="20.128" height="3.336"/>
					<rect x="123.527" y="45.605" fill="#F77B55" width="20.131" height="3.336"/>
				</g>
			</g>
			<g>
				<g>
					<rect x="45.271" y="105.184" fill="#CCCBCA" width="25.091" height="25.091"/>
					<g>
						<rect x="45.271" y="133.934" fill="#CCCBCA" width="25.091" height="1.79"/>
						<rect x="45.271" y="137.513" fill="#CCCBCA" width="25.091" height="1.794"/>
						<rect x="45.271" y="141.102" fill="#CCCBCA" width="12.548" height="1.794"/>
					</g>
				</g>
				<g>
					<rect x="81.917" y="105.184" fill="#CCCBCA" width="25.096" height="25.091"/>
					<g>
						<rect x="81.917" y="133.934" fill="#CCCBCA" width="25.098" height="1.79"/>
						<rect x="81.917" y="137.513" fill="#CCCBCA" width="25.098" height="1.794"/>
						<rect x="81.917" y="141.102" fill="#CCCBCA" width="12.553" height="1.794"/>
					</g>
				</g>
				<g>
					<rect x="118.563" y="105.184" fill="#F77B55" width="25.096" height="25.091"/>
					<g>
						<g>
							<rect x="118.571" y="133.934" fill="#CCCBCA" width="25.095" height="1.79"/>
							<rect x="118.571" y="137.513" fill="#CCCBCA" width="25.095" height="1.794"/>
							<rect x="118.571" y="141.102" fill="#CCCBCA" width="12.545" height="1.794"/>
						</g>
					</g>
				</g>
			</g>
			<g>
				<g>
					<g>
						<polygon fill="#353F49" points="138.659,136.439 131.107,117.729 149.817,125.274 142.538,129.148 						"/>
						
							<rect x="143.428" y="127.126" transform="matrix(0.7066 -0.7076 0.7076 0.7066 -50.5551 141.1317)" fill="#353F49" width="2.977" height="8.811"/>
					</g>
				</g>
				<g>
					<g>
						<polygon fill="#FFFFFF" points="127.43,114.576 125.021,112.167 125.555,111.641 127.963,114.048 						"/>
						<polygon fill="#FFFFFF" points="126.507,116.223 123.36,114.917 123.641,114.229 126.791,115.532 						"/>
						<rect x="122.873" y="117.353" fill="#FFFFFF" width="3.41" height="0.748"/>
						<polygon fill="#FFFFFF" points="123.646,121.225 123.365,120.532 126.51,119.222 126.791,119.914 						"/>
						
							<rect x="126.115" y="120.637" transform="matrix(0.7084 0.7058 -0.7058 0.7084 123.2348 -53.6049)" fill="#FFFFFF" width="0.754" height="3.409"/>
						<polygon fill="#FFFFFF" points="128.303,125.472 127.611,125.189 128.914,122.039 129.608,122.321 						"/>
						<rect x="130.729" y="122.548" fill="#FFFFFF" width="0.755" height="3.407"/>
						<rect x="135.93" y="117.352" fill="#FFFFFF" width="3.41" height="0.748"/>
						
							<rect x="136.771" y="113.52" transform="matrix(0.3817 0.9243 -0.9243 0.3817 191.291 -55.5185)" fill="#FFFFFF" width="0.747" height="3.41"/>
						
							<rect x="135.35" y="111.404" transform="matrix(0.7091 0.7051 -0.7051 0.7091 119.2461 -62.7982)" fill="#FFFFFF" width="0.749" height="3.409"/>
						<polygon fill="#FFFFFF" points="133.304,113.412 132.612,113.12 133.916,109.978 134.604,110.262 						"/>
						<rect x="130.729" y="109.493" fill="#FFFFFF" width="0.755" height="3.402"/>
						<polygon fill="#FFFFFF" points="128.912,113.412 127.611,110.262 128.303,109.978 129.608,113.12 						"/>
					</g>
				</g>
			</g>
		</g>
	</g>
	<g>
		<path fill-rule="evenodd" clip-rule="evenodd" fill="#92DEEB" d="M66.916,126.824c0.882-0.002,1.774,0.341,2.439,1.009
			c0.677,0.678,1.007,1.55,1.007,2.441v40.016c0,0.882-0.33,1.762-1.007,2.432c-0.67,0.681-1.558,1.011-2.439,1.011H3.453
			c-0.885,0-1.766-0.33-2.442-1.006C0.339,172.052,0,171.172,0,170.29l0.002-40.013c-0.002-0.888,0.336-1.767,1.008-2.444
			c0.679-0.668,1.557-1.009,2.442-1.009H66.916z"/>
		<g>
			<g>
				<rect x="8.768" y="163.337" fill-rule="evenodd" clip-rule="evenodd" fill="#353F49" width="10.997" height="1.497"/>
				<rect x="22.706" y="163.337" fill-rule="evenodd" clip-rule="evenodd" fill="#353F49" width="11.009" height="1.497"/>
				<rect x="36.661" y="163.337" fill-rule="evenodd" clip-rule="evenodd" fill="#353F49" width="10.998" height="1.497"/>
				<rect x="50.599" y="163.337" fill-rule="evenodd" clip-rule="evenodd" fill="#353F49" width="10.999" height="1.497"/>
			</g>
		</g>
		<g>
			<rect x="8.768" y="150.27" fill-rule="evenodd" clip-rule="evenodd" fill="#FFFFFF" width="52.827" height="6.031"/>
			<g>
				<g>
					<rect x="34.772" y="152.717" fill-rule="evenodd" clip-rule="evenodd" fill="#353F49" width="3.021" height="1.134"/>
					<rect x="39.491" y="152.719" fill-rule="evenodd" clip-rule="evenodd" fill="#353F49" width="9.06" height="1.129"/>
					<rect x="50.242" y="152.717" fill-rule="evenodd" clip-rule="evenodd" fill="#353F49" width="9.064" height="1.129"/>
				</g>
			</g>
		</g>
		<rect y="135.359" fill-rule="evenodd" clip-rule="evenodd" fill="#353F49" width="70.362" height="10.733"/>
	</g>
	<g>
		<path fill="#F2F2F2" d="M200,163.901c0,5.413-4.428,9.831-9.835,9.831h-7.148c-5.416,0-9.838-4.418-9.838-9.831v-28.133
			c0-5.408,4.422-9.831,9.838-9.831h7.148c5.407,0,9.835,4.423,9.835,9.831V163.901z"/>
		<path fill="#D9D8D7" d="M195.468,127.513c0.097,0.555,0.158,1.121,0.158,1.703v21.339c0,4.264-1.627,8.511-4.869,11.756
			c-3.252,3.254-7.505,4.872-11.763,4.872h-0.352c-1.949,0-3.772-0.58-5.295-1.572c0.802,4.602,4.842,8.122,9.669,8.122h7.148
			c5.407,0,9.835-4.418,9.835-9.831v-28.133C200,132.309,198.186,129.264,195.468,127.513z"/>
		<path fill="#353F49" d="M188.823,136.215c0,1.237-0.993,2.235-2.235,2.235c-1.24,0-2.228-0.998-2.228-2.235
			c0-1.235,0.987-2.238,2.228-2.238C187.83,133.977,188.823,134.979,188.823,136.215z"/>
	</g>
	<path fill="#D9D8D7" d="M175.069,76.061c-6.906,0-12.525,5.617-12.525,12.52c0,0,0.004,78.531,0.004,82.039
		c0,8.395-6.83,15.222-15.221,15.222s-15.218-6.827-15.219-15.222l-0.005-12.382l-2,0.003l0.005,12.379
		c0.001,9.496,7.726,17.223,17.219,17.223c9.495,0,17.219-7.727,17.219-17.223c0,0-0.001-27.774-0.001-82.039
		c0-5.801,4.721-10.521,10.524-10.521c5.8,0,10.52,4.723,10.52,10.527l-0.006,37.351h2l0.004-37.351
		C187.587,81.681,181.972,76.061,175.069,76.061z"/>
	<g>
		<path fill="#FDCA5C" d="M21.612,56.764c0,5.963-4.839,10.801-10.809,10.801C4.836,67.565,0,62.727,0,56.764
			c0-5.965,4.836-10.812,10.803-10.812C16.773,45.953,21.612,50.799,21.612,56.764z"/>
		<path fill="#FFDB79" d="M19.448,56.764c0,4.773-3.867,8.642-8.646,8.642c-4.773,0-8.641-3.869-8.641-8.642
			c0-4.778,3.867-8.646,8.641-8.646C15.581,48.118,19.448,51.986,19.448,56.764z"/>
		<g>
			<g>
				<path fill="#FDCA5C" d="M11.714,57.475H9.898c-0.756,0-1.473-0.292-2.005-0.834c-0.529-0.527-0.828-1.235-0.828-1.999
					c0-0.758,0.298-1.469,0.828-2.006c0.531-0.524,1.241-0.822,2.005-0.822h3.933v1.429H9.898c-0.379,0-0.735,0.144-0.987,0.406
					c-0.273,0.262-0.415,0.617-0.415,0.993c0,0.38,0.139,0.726,0.406,0.99c0.271,0.27,0.623,0.416,0.996,0.416h1.816V57.475z"/>
				<path fill="#FDCA5C" d="M11.714,61.708H7.781v-1.424h3.933c0.372,0,0.728-0.146,0.994-0.411
					c0.258-0.262,0.408-0.618,0.408-0.996c0-0.375-0.149-0.726-0.406-0.988c-0.269-0.267-0.625-0.416-0.997-0.416H9.898v-1.426
					h1.816c0.754,0,1.469,0.292,1.999,0.832c0.53,0.522,0.828,1.238,0.828,1.999c0,0.759-0.292,1.475-0.831,2.006
					C13.171,61.414,12.462,61.708,11.714,61.708z"/>
				<rect x="10.092" y="51.321" fill="#FDCA5C" width="1.423" height="10.882"/>
			</g>
		</g>
	</g>
	<g>
		<path fill="#FDCA5C" d="M55.447,26.3c0,7.803-6.324,14.128-14.134,14.128c-7.808,0-14.133-6.325-14.133-14.128
			c0-7.805,6.325-14.143,14.133-14.143C49.123,12.157,55.447,18.496,55.447,26.3z"/>
		<path fill="#FFDB79" d="M52.613,26.3c0,6.248-5.053,11.303-11.3,11.303c-6.245,0-11.303-5.056-11.303-11.303
			c0-6.25,5.058-11.305,11.303-11.305C47.561,14.995,52.613,20.05,52.613,26.3z"/>
		<g>
			<g>
				<path fill="#FDCA5C" d="M42.505,27.233h-2.38c-0.99,0-1.92-0.386-2.616-1.094c-0.702-0.686-1.086-1.615-1.086-2.613
					c0-0.991,0.384-1.92,1.086-2.624c0.689-0.688,1.615-1.074,2.616-1.074h5.146v1.862h-5.146c-0.495,0-0.955,0.191-1.29,0.529
					c-0.353,0.351-0.54,0.812-0.54,1.306c0,0.491,0.184,0.955,0.529,1.292c0.357,0.358,0.814,0.547,1.3,0.547h2.38V27.233z"/>
				<path fill="#FDCA5C" d="M42.505,32.767h-5.15V30.9h5.15c0.484,0,0.944-0.187,1.295-0.532c0.343-0.338,0.538-0.802,0.538-1.301
					c0-0.496-0.191-0.953-0.534-1.295c-0.355-0.348-0.815-0.539-1.299-0.539h-2.38v-1.868h2.38c0.985,0,1.913,0.386,2.615,1.091
					c0.697,0.678,1.085,1.613,1.085,2.611c0,0.993-0.386,1.928-1.089,2.621C44.41,32.387,43.483,32.767,42.505,32.767z"/>
				<rect x="40.382" y="19.176" fill="#FDCA5C" width="1.861" height="14.239"/>
			</g>
		</g>
	</g>
	<g>
		<circle fill="#FDCA5C" cx="33.653" cy="86.923" r="7.66"/>
		<path fill="#FFDB79" d="M39.781,86.923c0,3.387-2.741,6.126-6.129,6.126c-3.385,0-6.126-2.739-6.126-6.126
			c0-3.385,2.742-6.124,6.126-6.124C37.04,80.799,39.781,83.538,39.781,86.923z"/>
		<g>
			<g>
				<path fill="#FDCA5C" d="M34.298,87.432h-1.289c-0.54,0-1.041-0.209-1.417-0.592c-0.379-0.371-0.587-0.88-0.587-1.419
					c0-0.537,0.208-1.041,0.587-1.419c0.373-0.375,0.872-0.584,1.417-0.584h2.787v1.008h-2.787c-0.268,0-0.522,0.106-0.702,0.29
					c-0.191,0.191-0.292,0.441-0.292,0.706c0,0.27,0.099,0.517,0.285,0.703c0.194,0.191,0.447,0.295,0.709,0.295h1.289V87.432z"/>
				<path fill="#FDCA5C" d="M34.298,90.431h-2.792V89.42h2.792c0.262,0,0.513-0.106,0.703-0.292
					c0.185-0.181,0.292-0.434,0.292-0.701c0-0.27-0.105-0.519-0.292-0.703c-0.19-0.191-0.441-0.292-0.703-0.292h-1.289v-1.013h1.289
					c0.533,0,1.04,0.209,1.417,0.587c0.375,0.371,0.587,0.88,0.587,1.421c0,0.535-0.21,1.041-0.589,1.419
					C35.333,90.224,34.826,90.431,34.298,90.431z"/>
				<rect x="33.149" y="83.062" fill="#FDCA5C" width="1.009" height="7.722"/>
			</g>
		</g>
	</g>
</g>
</svg>
