<?xml version="1.0" encoding="utf-8"?>
<!-- Generator: Adobe Illustrator 16.0.0, SVG Export Plug-In . SVG Version: 6.00 Build 0)  -->
<!DOCTYPE svg PUBLIC "-//W3C//DTD SVG 1.1//EN" "http://www.w3.org/Graphics/SVG/1.1/DTD/svg11.dtd">
<svg version="1.1" id="Layer_1" xmlns="http://www.w3.org/2000/svg" xmlns:xlink="http://www.w3.org/1999/xlink" x="0px" y="0px"
	 width="200px" height="200px" viewBox="0 0 200 200" enable-background="new 0 0 200 200" xml:space="preserve">
<g>
	<g>
		<path fill="#E6E5E5" d="M177.168,177.867c0.346-1.585,0.54-3.227,0.54-4.914c0-12.664-10.27-22.926-22.931-22.926
			c-5.32,0-10.203,1.828-14.097,4.871c-1.209-3.613-4.613-6.22-8.629-6.22c-2.886,0-5.199,1.518-7.094,3.409
			c-2.529,2.53-7.539,0.222-8.333-0.302c-3.654-2.394-9.75-7.176-9.75-27.891l-0.028-4.041c0-2.251,0.948-3.365,2.221-3.59
			c1.461-0.258,2.64-1.344,2.64-2.853c0-0.006-0.002-0.01-0.002-0.016c2.748-0.097,4.949-2.335,4.949-5.108
			c0-2.826-2.291-5.118-5.124-5.118c-1.517,0-2.868,0.672-3.804,1.725c-0.271-0.714-0.954-1.225-1.762-1.225
			c-0.722,0-1.342,0.411-1.658,1.007c-0.487-0.893-1.425-1.507-2.514-1.507c-1.112,0-2.067,0.638-2.542,1.563
			c-0.519-0.236-1.089-0.377-1.698-0.377c-2.261,0-4.095,1.834-4.095,4.097c0,2.264,1.834,4.097,4.095,4.097
			c0.03,0,0.054-0.007,0.083-0.007c-0.034,0.132-0.083,0.256-0.083,0.397c0,0.803,0.546,1.417,1.253,1.698
			c0.711,0.283,1.17,1.048,1.17,1.875v14.145c0,8.087-1.012,13.693-3.737,17.565c-0.954,1.356-2.265,2.507-4.042,2.507
			c-1.405,0-2.676-0.636-3.495-1.641c0.011,0.02,0.019,0.039,0.03,0.061c-2.107-3.438-5.89-5.74-10.217-5.74
			c-3.968,0-7.475,1.934-9.659,4.906c-4.125-2.739-9.069-4.345-14.393-4.345c-14.393,0-26.062,11.666-26.062,26.059
			c0,14.394,11.669,26.062,26.062,26.062c5.752,0,11.049-1.887,15.36-5.041c0.45,5.019,4.661,8.95,9.794,8.95
			c5.435,0,9.84-4.403,9.84-9.84c0-0.564-0.057-1.118-0.149-1.656c2.021,0.968,4.274,1.526,6.662,1.526
			c4.212,0,8.022-1.688,10.809-4.418c-0.002,0.077-0.021,0.152-0.021,0.232c0,3.327,2.698,6.021,6.021,6.021
			c1.597,0,3.035-0.63,4.114-1.643c1.843,5.674,7.166,9.776,13.456,9.776c5.411,0,10.106-3.04,12.49-7.502
			c3.48,2.133,7.559,3.383,11.939,3.383c5.845,0,11.164-2.207,15.214-5.809c1.091,0.68,2.366,1.089,3.744,1.089
			c3.927,0,7.108-3.181,7.108-7.106C180.844,181.38,179.349,179.079,177.168,177.867z"/>
		<g>
			<g>
				<g>
					<path fill="#CCCBCA" d="M148.908,75.393c-0.898-0.906-2.089-1.355-3.272-1.355c-1.185,0-2.369,0.449-3.273,1.355
						c-0.907,0.903-1.354,2.09-1.354,3.275v17.44h9.258v-17.44C150.266,77.483,149.815,76.296,148.908,75.393z"/>
					<rect x="141.008" y="96.108" fill="#353F49" width="9.258" height="4.323"/>
				</g>
				<path fill="#353F49" d="M117.48,50.921v45.187h23.527V83.919C128.011,83.919,117.48,69.145,117.48,50.921z"/>
			</g>
			<g>
				<g>
					<path fill="#CCCBCA" d="M66.893,75.393c-0.901-0.906-2.09-1.355-3.271-1.355c-1.188,0-2.371,0.449-3.272,1.355
						c-0.907,0.903-1.359,2.09-1.359,3.275v17.44h9.26v-17.44C68.25,77.483,67.8,76.296,66.893,75.393z"/>
					<rect x="58.99" y="96.108" fill="#353F49" width="9.26" height="4.323"/>
				</g>
				<path fill="#353F49" d="M91.777,50.921v45.187H68.25V83.919C81.246,83.919,91.777,69.145,91.777,50.921z"/>
			</g>
			<g>
				<path fill="#E6E5E5" d="M104.629,0c-8.103,11.747-12.852,25.975-12.852,41.319v54.789h25.704V41.319
					C117.48,25.975,112.725,11.747,104.629,0z"/>
				<path fill="#353F49" d="M104.629,0c-3.111,4.515-5.727,9.399-7.769,14.568h15.533C110.352,9.399,107.736,4.515,104.629,0z"/>
				<rect x="91.777" y="87.464" fill="#CCCBCA" width="25.704" height="8.644"/>
				<polygon fill="#353F49" points="113.456,104.752 95.801,104.752 91.777,96.108 117.48,96.108 				"/>
			</g>
			<g>
				<path fill="#CCCBCA" d="M113.127,36.392c0,4.689-3.808,8.498-8.498,8.498c-4.696,0-8.498-3.808-8.498-8.498
					c0-4.692,3.802-8.499,8.498-8.499C109.319,27.893,113.127,31.7,113.127,36.392z"/>
				<circle fill="#353F49" cx="104.629" cy="36.392" r="5.949"/>
			</g>
		</g>
	</g>
	<g>
		<path fill="#353F49" d="M165.199,126.146c0,3.967-3.215,7.187-7.187,7.187c-3.967,0-7.186-3.22-7.186-7.187
			c0-3.97,3.219-7.187,7.186-7.187C161.984,118.959,165.199,122.176,165.199,126.146z"/>
		<circle fill="#353F49" cx="40.411" cy="49.509" r="4.619"/>
		<circle fill="#353F49" cx="61.151" cy="123.065" r="3.08"/>
		<circle fill="#353F49" cx="135.108" cy="7.283" r="4.538"/>
		<circle fill="#353F49" cx="5.012" cy="104.284" r="1.903"/>
		<path fill="#E6E5E5" d="M196.891,56.789c-4.828,0-8.739,3.92-8.739,8.736c0-4.816-3.905-8.736-8.734-8.736
			c4.829,0,8.734-3.922,8.734-8.734C188.151,52.867,192.063,56.789,196.891,56.789z"/>
		<path fill="#E6E5E5" d="M152.747,42.337c-3.121,0-5.649,2.537-5.649,5.649c0-3.112-2.529-5.649-5.646-5.649
			c3.117,0,5.646-2.532,5.646-5.645C147.098,39.805,149.626,42.337,152.747,42.337z"/>
		<path fill="#E6E5E5" d="M189.246,114.766c-1.44,0-2.609,1.172-2.609,2.609c0-1.438-1.168-2.609-2.608-2.609
			c1.44,0,2.608-1.17,2.608-2.609C186.637,113.596,187.806,114.766,189.246,114.766z"/>
		<path fill="#E6E5E5" d="M23.731,72.135c-4.819,0-8.728,3.917-8.728,8.724c0-4.807-3.907-8.724-8.724-8.724
			c4.816,0,8.724-3.918,8.724-8.728C15.003,68.217,18.912,72.135,23.731,72.135z"/>
		<path fill="#E6E5E5" d="M42.212,22.593c-2.549,0-4.62,2.07-4.62,4.616c0-2.545-2.069-4.616-4.622-4.616
			c2.552,0,4.622-2.076,4.622-4.623C37.592,20.517,39.663,22.593,42.212,22.593z"/>
		<path fill="#E6E5E5" d="M191.168,141.498c-2.504,0-4.531,2.032-4.531,4.529c0-2.497-2.026-4.529-4.53-4.529
			c2.504,0,4.53-2.035,4.53-4.531C186.637,139.463,188.664,141.498,191.168,141.498z"/>
		<path fill="#E6E5E5" d="M29.315,132.441c-5.428,0-9.829,4.411-9.829,9.827c0-5.416-4.398-9.827-9.83-9.827
			c5.432,0,9.83-4.412,9.83-9.828C19.486,128.029,23.887,132.441,29.315,132.441z"/>
	</g>
</g>
</svg>
