<?xml version="1.0" encoding="utf-8"?>
<!-- Generator: Adobe Illustrator 16.0.0, SVG Export Plug-In . SVG Version: 6.00 Build 0)  -->
<!DOCTYPE svg PUBLIC "-//W3C//DTD SVG 1.1//EN" "http://www.w3.org/Graphics/SVG/1.1/DTD/svg11.dtd">
<svg version="1.1" id="Layer_1" xmlns="http://www.w3.org/2000/svg" xmlns:xlink="http://www.w3.org/1999/xlink" x="0px" y="0px"
	 width="200px" height="200px" viewBox="0 0 200 200" enable-background="new 0 0 200 200" xml:space="preserve">
<g>
	<g>
		<g>
			<path fill="#F2F2F2" d="M0,27.196v107.268c0,8.752,7.102,15.864,15.868,15.864h168.254c8.772,0,15.878-7.112,15.878-15.864
				V27.196H0z"/>
			<path fill="#CCCBCA" d="M15.871,11.331v107.264C7.099,118.595,0,125.698,0,134.464V27.196C0,18.43,7.099,11.331,15.871,11.331z"
				/>
			<path fill="#CCCBCA" d="M184.114,11.331v107.264c8.783,0,15.886,7.104,15.886,15.869V27.196
				C200,18.43,192.897,11.331,184.114,11.331z"/>
		</g>
		<g>
			<g>
				<rect x="28.566" y="129.851" fill="#FFFFFF" width="142.855" height="0.529"/>
				<rect x="28.566" y="122.334" fill="#FFFFFF" width="142.855" height="0.528"/>
				<rect x="28.566" y="114.817" fill="#FFFFFF" width="142.855" height="0.528"/>
				<rect x="28.566" y="107.299" fill="#FFFFFF" width="142.855" height="0.53"/>
				<rect x="28.566" y="99.783" fill="#FFFFFF" width="142.855" height="0.528"/>
				<rect x="28.566" y="92.265" fill="#FFFFFF" width="142.855" height="0.529"/>
				<rect x="28.566" y="84.723" fill="#FFFFFF" width="142.855" height="0.528"/>
				<rect x="28.566" y="77.205" fill="#FFFFFF" width="142.855" height="0.53"/>
				<rect x="28.566" y="69.688" fill="#FFFFFF" width="142.855" height="0.53"/>
				<rect x="28.566" y="62.173" fill="#FFFFFF" width="142.855" height="0.528"/>
				<rect x="28.566" y="54.656" fill="#FFFFFF" width="142.855" height="0.528"/>
				<rect x="28.566" y="47.138" fill="#FFFFFF" width="142.855" height="0.53"/>
				<rect x="156.115" y="39.891" fill="#FFFFFF" width="0.522" height="97.742"/>
				<rect x="163.646" y="39.891" fill="#FFFFFF" width="0.525" height="97.742"/>
				<rect x="148.612" y="39.891" fill="#FFFFFF" width="0.523" height="97.742"/>
				<rect x="141.081" y="39.891" fill="#FFFFFF" width="0.523" height="97.742"/>
				<rect x="133.582" y="39.891" fill="#FFFFFF" width="0.522" height="97.742"/>
				<rect x="126.049" y="39.891" fill="#FFFFFF" width="0.522" height="97.742"/>
				<rect x="118.549" y="39.891" fill="#FFFFFF" width="0.521" height="97.742"/>
				<rect x="111.016" y="39.891" fill="#FFFFFF" width="0.521" height="97.742"/>
				<rect x="103.513" y="39.891" fill="#FFFFFF" width="0.521" height="97.742"/>
				<rect x="95.973" y="39.891" fill="#FFFFFF" width="0.529" height="97.742"/>
				<rect x="88.444" y="39.891" fill="#FFFFFF" width="0.528" height="97.742"/>
				<rect x="80.939" y="39.891" fill="#FFFFFF" width="0.529" height="97.742"/>
				<rect x="73.411" y="39.891" fill="#FFFFFF" width="0.53" height="97.742"/>
				<rect x="65.908" y="39.891" fill="#FFFFFF" width="0.528" height="97.742"/>
				<rect x="58.378" y="39.891" fill="#FFFFFF" width="0.526" height="97.742"/>
				<rect x="50.876" y="39.891" fill="#FFFFFF" width="0.528" height="97.742"/>
				<rect x="43.342" y="39.891" fill="#FFFFFF" width="0.529" height="97.742"/>
				<rect x="35.843" y="39.891" fill="#FFFFFF" width="0.528" height="97.742"/>
			</g>
			<path fill="#FFFFFF" d="M172.936,139.134H27.065V38.383h145.87V139.134z M30.072,136.127h139.852V41.39H30.072V136.127z"/>
			<g>
				<polygon fill="#FFFFFF" points="174.439,41.39 169.924,41.39 169.924,36.873 172.936,36.873 172.936,38.383 174.439,38.383 				
					"/>
				<polygon fill="#FFFFFF" points="172.936,140.64 169.924,140.64 169.924,136.127 174.439,136.127 174.439,139.134 
					172.936,139.134 				"/>
				<polygon fill="#FFFFFF" points="30.072,41.39 25.561,41.39 25.561,38.383 27.065,38.383 27.065,36.873 30.072,36.873 				"/>
				<polygon fill="#FFFFFF" points="30.072,140.64 27.065,140.64 27.065,139.134 25.561,139.134 25.561,136.127 30.072,136.127 				
					"/>
			</g>
		</g>
		<g>
			<path fill="#474F59" d="M103.809,124.156h-7.607l-1.466-7.308c-1.445-0.272-2.864-0.646-4.231-1.123l-4.91,5.587l-6.596-3.803
				l2.387-7.049c-1.11-0.948-2.143-1.987-3.097-3.09l-7.047,2.378l-3.807-6.586l5.584-4.915c-0.476-1.361-0.849-2.779-1.117-4.226
				l-7.304-1.468v-7.605l7.304-1.466c0.266-1.44,0.642-2.86,1.12-4.233l-5.587-4.906l3.807-6.587l7.044,2.382
				c0.956-1.111,1.989-2.144,3.1-3.095L78.998,60l6.596-3.812l4.91,5.585c1.361-0.477,2.778-0.849,4.226-1.116l1.465-7.309h7.614
				l1.465,7.305c1.45,0.268,2.853,0.639,4.217,1.117l4.914-5.575l6.592,3.803l-2.369,7.044c1.11,0.958,2.15,1.99,3.091,3.094
				l7.048-2.38l3.797,6.589l-5.578,4.902c0.468,1.367,0.858,2.785,1.12,4.235l7.301,1.468v7.605l-7.301,1.468
				c-0.262,1.447-0.648,2.864-1.114,4.224l5.57,4.917l-3.792,6.586l-7.052-2.378c-0.939,1.096-1.979,2.136-3.09,3.093l2.369,7.046
				l-6.592,3.803l-4.914-5.584c-1.359,0.474-2.761,0.848-4.217,1.12L103.809,124.156z M98.668,121.146h2.672l1.396-6.941
				l1.052-0.159c1.953-0.289,3.834-0.79,5.604-1.488l0.984-0.388l4.664,5.306l2.321-1.338l-2.251-6.688l0.81-0.657
				c1.548-1.226,2.935-2.61,4.109-4.113l0.664-0.823l6.698,2.256l1.341-2.323l-5.301-4.664l0.385-0.982
				c0.691-1.772,1.2-3.661,1.481-5.614l0.17-1.043l6.921-1.396v-2.675l-6.921-1.399l-0.17-1.042c-0.281-1.95-0.79-3.844-1.488-5.625
				l-0.387-0.977l5.307-4.661l-1.336-2.316l-6.702,2.262l-0.665-0.834c-1.177-1.497-2.562-2.885-4.106-4.115l-0.81-0.655
				l2.251-6.679l-2.321-1.347l-4.664,5.302l-0.982-0.385c-1.783-0.703-3.665-1.205-5.605-1.492l-1.052-0.152l-1.396-6.945H98.66
				l-1.393,6.948l-1.043,0.153c-1.953,0.288-3.841,0.792-5.612,1.493l-0.984,0.388l-4.667-5.315l-2.323,1.351l2.267,6.691
				l-0.832,0.655c-1.515,1.21-2.899,2.592-4.107,4.107l-0.657,0.833l-6.7-2.264l-1.337,2.316l5.307,4.661l-0.385,0.982
				c-0.707,1.796-1.21,3.689-1.496,5.623l-0.151,1.045l-6.939,1.394v2.675l6.939,1.396l0.151,1.043
				c0.289,1.953,0.79,3.838,1.491,5.611l0.389,0.985l-5.309,4.664l1.34,2.323l6.698-2.256l0.657,0.823
				c1.208,1.518,2.592,2.893,4.107,4.103l0.832,0.656l-2.266,6.699l2.322,1.338l4.667-5.311l0.982,0.388
				c1.781,0.703,3.674,1.206,5.617,1.493l1.044,0.159L98.668,121.146z"/>
			<path fill="#474F59" d="M100.033,109.068c-11.217,0-20.341-9.119-20.341-20.329c0-11.186,9.124-20.292,20.341-20.292
				c11.189,0,20.282,9.105,20.282,20.292C120.314,99.95,111.222,109.068,100.033,109.068z M100.033,71.455
				c-9.556,0-17.334,7.758-17.334,17.285c0,9.554,7.778,17.323,17.334,17.323c9.521,0,17.267-7.769,17.267-17.323
				C117.3,79.212,109.554,71.455,100.033,71.455z"/>
			<path fill="#474F59" d="M100.006,94.033c-2.909,0-5.279-2.371-5.279-5.281c0-2.903,2.371-5.268,5.279-5.268
				c2.904,0,5.273,2.364,5.273,5.268C105.279,91.662,102.91,94.033,100.006,94.033z M100.006,86.491
				c-1.252,0-2.272,1.018-2.272,2.261c0,1.251,1.021,2.274,2.272,2.274c1.247,0,2.258-1.022,2.258-2.274
				C102.264,87.509,101.253,86.491,100.006,86.491z"/>
			<path fill="#474F59" d="M100.232,131.617h-0.173c-1.547,0-3.104-0.083-4.625-0.246l0.32-2.993
				c1.417,0.155,2.866,0.232,4.306,0.232h0.173V131.617z M104.863,131.35l-0.334-2.985c1.428-0.167,2.854-0.403,4.248-0.72
				l0.666,2.936C107.936,130.913,106.399,131.178,104.863,131.35z M90.859,130.623c-1.508-0.323-3.016-0.74-4.476-1.233l0.962-2.854
				c1.36,0.464,2.753,0.851,4.153,1.147L90.859,130.623z M113.902,129.313l-0.977-2.846c1.352-0.462,2.691-1.014,3.983-1.619
				l1.292,2.719C116.802,128.223,115.35,128.812,113.902,129.313z M82.076,127.678c-1.406-0.655-2.786-1.382-4.099-2.175l1.551-2.58
				c1.221,0.739,2.503,1.42,3.812,2.026L82.076,127.678z M122.28,125.361l-1.568-2.561c1.227-0.751,2.424-1.571,3.554-2.444
				l1.828,2.377C124.886,123.679,123.593,124.559,122.28,125.361z M74.136,122.903c-1.234-0.937-2.417-1.947-3.539-3.002
				l2.065-2.182c1.039,0.979,2.148,1.918,3.288,2.785L74.136,122.903z M129.609,119.712l-2.078-2.172
				c1.045-0.989,2.038-2.057,2.954-3.144l2.298,1.936C131.793,117.507,130.735,118.641,129.609,119.712z M67.403,116.548
				c-1.004-1.175-1.95-2.42-2.814-3.688l2.479-1.691c0.808,1.183,1.689,2.332,2.617,3.427L67.403,116.548z M135.578,112.63
				l-2.492-1.681c0.79-1.195,1.544-2.438,2.199-3.702l2.672,1.398C137.232,110.008,136.437,111.346,135.578,112.63z M62.18,108.898
				c-0.725-1.361-1.388-2.778-1.962-4.2l2.795-1.126c0.528,1.331,1.144,2.64,1.818,3.906L62.18,108.898z M139.887,104.433
				l-2.801-1.109c0.522-1.324,0.982-2.702,1.361-4.09l2.898,0.793C140.938,101.512,140.45,102.995,139.887,104.433z M58.73,100.306
				c-0.42-1.488-0.762-3.008-1.009-4.532l2.97-0.491c0.229,1.415,0.546,2.826,0.931,4.211L58.73,100.306z M142.32,95.489
				l-2.971-0.469c0.222-1.415,0.383-2.865,0.445-4.29l3.013,0.146C142.725,92.418,142.564,93.967,142.32,95.489z M57.209,91.167
				c-0.042-0.802-0.067-1.619-0.067-2.443c0-0.732,0.021-1.466,0.052-2.187l3.01,0.146c-0.037,0.675-0.056,1.355-0.056,2.041
				c0,0.771,0.023,1.525,0.062,2.276L57.209,91.167z M139.78,86.414c-0.072-1.423-0.229-2.871-0.469-4.282l2.968-0.497
				c0.244,1.521,0.414,3.079,0.508,4.613L139.78,86.414z M60.652,82.396l-2.974-0.475c0.247-1.518,0.576-3.048,0.982-4.528
				l2.906,0.789C61.183,79.566,60.881,80.987,60.652,82.396z M138.37,77.924c-0.388-1.382-0.865-2.754-1.396-4.075l2.774-1.133
				c0.594,1.433,1.091,2.909,1.513,4.392L138.37,77.924z M62.934,74.094l-2.801-1.104c0.568-1.44,1.225-2.853,1.941-4.214
				l2.661,1.399C64.065,71.443,63.458,72.764,62.934,74.094z M135.137,69.945c-0.664-1.251-1.431-2.495-2.232-3.684l2.476-1.699
				c0.87,1.28,1.681,2.61,2.402,3.958L135.137,69.945z M66.951,66.482l-2.486-1.686c0.861-1.27,1.801-2.519,2.8-3.696l2.299,1.943
				C68.633,64.141,67.756,65.295,66.951,66.482z M130.271,62.84c-0.934-1.086-1.937-2.141-2.984-3.121l2.069-2.187
				c1.115,1.052,2.187,2.183,3.191,3.354L130.271,62.84z M72.52,59.911l-2.067-2.18c1.111-1.061,2.298-2.076,3.521-3.008l1.83,2.385
				C74.663,57.977,73.563,58.924,72.52,59.911z M123.992,56.942c-1.143-0.864-2.347-1.678-3.574-2.41l1.552-2.583
				c1.318,0.792,2.605,1.663,3.84,2.594L123.992,56.942z M79.359,54.677l-1.56-2.575c1.317-0.79,2.693-1.531,4.087-2.183
				l1.274,2.724C81.866,53.254,80.585,53.939,79.359,54.677z M116.606,52.516c-1.3-0.6-2.647-1.129-4.006-1.585l0.95-2.848
				c1.451,0.487,2.91,1.059,4.314,1.7L116.606,52.516z M87.161,51.03l-0.972-2.839c1.463-0.5,2.968-0.925,4.473-1.262l0.649,2.936
				C89.915,50.176,88.525,50.568,87.161,51.03z M108.436,49.796c-1.401-0.302-2.837-0.527-4.251-0.676l0.302-2.989
				c1.534,0.155,3.073,0.404,4.587,0.725L108.436,49.796z M95.563,49.16l-0.33-2.994c1.524-0.17,3.081-0.26,4.624-0.266l0.013,3.007
				C98.438,48.913,96.987,48.995,95.563,49.16z"/>
		</g>
	</g>
	<g>
		<polygon fill="#F2F2F2" points="26.657,17.534 23.683,27.196 33.453,27.196 30.482,17.534 		"/>
		<polygon fill="#CCCBCA" points="29.278,17.534 30.387,27.196 33.453,27.196 30.482,17.534 		"/>
		<rect x="23.683" y="27.196" fill="#474F59" width="9.77" height="99.186"/>
		<rect x="30.387" y="27.196" fill="#232E38" width="3.066" height="99.186"/>
		<polygon fill="#656A73" points="30.483,17.534 28.566,11.331 26.648,17.534 		"/>
		<polygon fill="#232E38" points="30.483,17.534 28.566,11.331 29.278,17.534 		"/>
		<rect x="23.683" y="126.382" fill="#FFFFFF" width="9.77" height="3.734"/>
		<rect x="30.387" y="126.382" fill="#CCCBCA" width="3.066" height="3.734"/>
		<path fill="#F77B55" d="M33.453,135.748c0,1.255-0.482,2.498-1.423,3.463c-0.953,0.943-2.202,1.429-3.464,1.429l0,0
			c-1.25,0-2.495-0.485-3.448-1.429c-0.951-0.965-1.435-2.208-1.435-3.463v-5.632h9.77V135.748z"/>
		<path fill="#EE643C" d="M30.387,130.116v2.553c0,1.262-0.484,2.517-1.432,3.464c-0.96,0.941-2.205,1.422-3.455,1.422
			c-0.523,0-1.039-0.093-1.539-0.265c0.225,0.701,0.599,1.353,1.157,1.921c0.953,0.943,2.197,1.429,3.448,1.429
			c1.262,0,2.511-0.485,3.464-1.429c0.941-0.965,1.423-2.208,1.423-3.463v-5.632H30.387z"/>
	</g>
	<g>
		<path fill="#F77B55" d="M0,163.106v21.05h200v-21.05H0z M187.608,178.895c-1.657,0-3.001-1.347-3.001-3.007
			s1.344-3.004,3.001-3.004c1.664,0,3.008,1.344,3.008,3.004S189.272,178.895,187.608,178.895z"/>
		<g>
			<rect x="195.608" y="163.106" fill="#FFFFFF" width="1.522" height="4.516"/>
			<rect x="191.242" y="163.106" fill="#FFFFFF" width="1.497" height="4.516"/>
			<rect x="186.851" y="163.109" fill="#FFFFFF" width="1.522" height="4.513"/>
			<rect x="182.485" y="163.106" fill="#FFFFFF" width="1.496" height="4.516"/>
			<rect x="178.093" y="163.106" fill="#FFFFFF" width="1.5" height="4.516"/>
			<rect x="173.72" y="163.106" fill="#FFFFFF" width="1.504" height="4.516"/>
			<rect x="169.336" y="163.106" fill="#FFFFFF" width="1.496" height="4.516"/>
			<rect x="164.952" y="163.106" fill="#FFFFFF" width="1.515" height="4.516"/>
			<rect x="160.578" y="163.106" fill="#FFFFFF" width="1.499" height="4.516"/>
			<rect x="156.187" y="163.106" fill="#FFFFFF" width="1.518" height="4.516"/>
			<rect x="151.821" y="163.106" fill="#FFFFFF" width="1.496" height="4.516"/>
			<rect x="147.429" y="163.106" fill="#FFFFFF" width="1.508" height="4.516"/>
			<rect x="143.063" y="163.106" fill="#FFFFFF" width="1.497" height="4.516"/>
			<rect x="138.674" y="163.106" fill="#FFFFFF" width="1.494" height="4.516"/>
			<rect x="134.283" y="163.106" fill="#FFFFFF" width="1.521" height="4.516"/>
			<rect x="129.914" y="163.106" fill="#FFFFFF" width="1.499" height="4.516"/>
			<rect x="125.523" y="163.106" fill="#FFFFFF" width="1.521" height="4.516"/>
			<rect x="121.159" y="163.106" fill="#FFFFFF" width="1.494" height="4.516"/>
			<rect x="116.766" y="163.106" fill="#FFFFFF" width="1.499" height="4.516"/>
			<rect x="112.399" y="163.106" fill="#FFFFFF" width="1.499" height="4.516"/>
			<rect x="108.01" y="163.106" fill="#FFFFFF" width="1.495" height="4.516"/>
			<rect x="103.619" y="163.106" fill="#FFFFFF" width="1.521" height="4.516"/>
			<rect x="99.253" y="163.106" fill="#FFFFFF" width="1.494" height="4.516"/>
			<rect x="94.87" y="163.106" fill="#FFFFFF" width="1.499" height="4.516"/>
			<rect x="90.483" y="163.106" fill="#FFFFFF" width="1.506" height="4.516"/>
			<rect x="86.103" y="163.106" fill="#FFFFFF" width="1.509" height="4.516"/>
			<rect x="81.724" y="163.106" fill="#FFFFFF" width="1.509" height="4.516"/>
			<rect x="77.347" y="163.106" fill="#FFFFFF" width="1.508" height="4.516"/>
			<rect x="72.967" y="163.106" fill="#FFFFFF" width="1.498" height="4.516"/>
			<rect x="68.59" y="163.106" fill="#FFFFFF" width="1.493" height="4.516"/>
			<rect x="64.206" y="163.106" fill="#FFFFFF" width="1.499" height="4.516"/>
			<rect x="59.817" y="163.106" fill="#FFFFFF" width="1.508" height="4.516"/>
			<rect x="55.44" y="163.106" fill="#FFFFFF" width="1.508" height="4.516"/>
			<rect x="51.061" y="163.106" fill="#FFFFFF" width="1.511" height="4.516"/>
			<rect x="46.683" y="163.106" fill="#FFFFFF" width="1.508" height="4.516"/>
			<rect x="42.303" y="163.106" fill="#FFFFFF" width="1.498" height="4.516"/>
			<rect x="37.926" y="163.106" fill="#FFFFFF" width="1.494" height="4.516"/>
			<rect x="33.542" y="163.106" fill="#FFFFFF" width="1.5" height="4.516"/>
			<rect x="29.155" y="163.106" fill="#FFFFFF" width="1.509" height="4.516"/>
			<rect x="24.775" y="163.106" fill="#FFFFFF" width="1.509" height="4.516"/>
			<rect x="20.398" y="163.106" fill="#FFFFFF" width="1.508" height="4.516"/>
			<rect x="16.019" y="163.106" fill="#FFFFFF" width="1.508" height="4.516"/>
			<rect x="11.64" y="163.106" fill="#FFFFFF" width="1.496" height="4.516"/>
			<rect x="7.262" y="163.106" fill="#FFFFFF" width="1.494" height="4.516"/>
			<rect x="2.878" y="163.106" fill="#FFFFFF" width="1.5" height="4.516"/>
		</g>
		<rect y="184.156" fill="#EE643C" width="200" height="4.513"/>
	</g>
</g>
</svg>
