<?xml version="1.0" encoding="utf-8"?>
<!-- Generator: Adobe Illustrator 16.0.0, SVG Export Plug-In . SVG Version: 6.00 Build 0)  -->
<!DOCTYPE svg PUBLIC "-//W3C//DTD SVG 1.1//EN" "http://www.w3.org/Graphics/SVG/1.1/DTD/svg11.dtd">
<svg version="1.1" id="Layer_1" xmlns="http://www.w3.org/2000/svg" xmlns:xlink="http://www.w3.org/1999/xlink" x="0px" y="0px"
	 width="200px" height="200px" viewBox="0 0 200 200" enable-background="new 0 0 200 200" xml:space="preserve">
<g>
	<g>
		<rect x="32.517" y="52.991" fill="#F2F2F2" width="146.057" height="88.313"/>
		<rect x="32.517" y="39.405" fill="#474F59" width="146.057" height="13.586"/>
		<g>
			<rect x="42.707" y="63.178" fill="#FFFFFF" width="67.933" height="67.935"/>
			<g>
				<polygon fill="#CCCBCA" points="88.263,84.636 65.077,84.636 63.498,118.352 89.849,118.352 				"/>
				<path fill="#F2F2F2" d="M102.222,123.593c-0.359-1.158-0.973-2.258-1.856-3.203c-0.875-0.952-1.921-1.643-3.046-2.1
					l-11.976-4.749c-0.602-0.244-1.144-0.664-1.537-1.233c-0.397-0.592-0.581-1.244-0.581-1.89v-5.84H70.121v5.84
					c0,0.646-0.194,1.298-0.577,1.89c-0.395,0.569-0.94,0.989-1.541,1.233l-11.973,4.749c-1.125,0.457-2.171,1.147-3.049,2.1
					c-0.883,0.945-1.493,2.045-1.865,3.203l-2.367,7.521h55.844L102.222,123.593z"/>
				<path fill="#CCCBCA" d="M60.485,122.782c0,2.964-0.465,5.979-1.279,8.331h34.93c-0.808-2.352-1.276-5.367-1.276-8.331
					c0-2.136,0.244-4.15,0.677-5.98l-3.203-1.271l-1.38,5.541c-0.653,2.648-2.163,5.124-4.483,6.93
					c-2.322,1.814-4.894,2.579-7.798,2.579c-2.912,0-5.484-0.765-7.8-2.579c-2.315-1.806-3.83-4.281-4.48-6.93l-1.382-5.541
					l-3.2,1.271C60.245,118.632,60.485,120.646,60.485,122.782z"/>
				<path fill="#FFFFFF" d="M76.673,74.924c-7.165,0-12.271,5.22-12.271,16.283c0,9.357,5.493,17.269,12.271,17.269
					c6.776,0,12.269-7.911,12.269-17.269C88.942,80.144,83.837,74.924,76.673,74.924z"/>
				<path fill="#CCCBCA" d="M87.688,75.515H76.673H65.66c0,0-1.564,11.008,0.431,13.244c0.088-0.907,0.891-1.164,2.349-1.169
					c0,0,1.235-1.365,2.112-5.145c0.678,2.567,0.368,5.248,0.368,5.248c1.566,0.113,3.496,0.271,5.753,0.282
					c0.573-0.003,1.124-0.014,1.652-0.024c0,0,0.666-0.417,0.963-1.4c0.417,0.542,0.465,1.32,0.465,1.32
					c4.713-0.251,7.34-0.801,7.491,0.888C89.252,86.523,87.688,75.515,87.688,75.515z"/>
				<path fill="#CCCBCA" d="M68.003,113.541c0.601-0.244,1.146-0.664,1.541-1.233c0.383-0.592,0.577-1.244,0.577-1.89v-2.49h-3.687
					c-0.479-3.473-0.745-6.903-0.745-10.154c0-9.606,0.661-13.209,3.317-16.45c3.426-4.175,7.667-5.043,7.667-5.043
					s4.241,0.868,7.667,5.043c2.655,3.241,3.311,6.844,3.311,16.45c0,3.25-0.258,6.681-0.741,10.154h-3.684v2.49
					c0,0.646,0.183,1.298,0.581,1.89c0.393,0.569,0.935,0.989,1.537,1.233l6.852,2.727c0.854-1.058,1.278-2.323,1.278-3.594v-4.746
					c0-7.965-0.234-18.341-1.925-25.914c-1.466-6.507-7.015-12.786-14.875-11.079c-7.858-1.707-13.405,4.572-14.873,11.079
					c-1.698,7.573-1.936,17.949-1.936,25.914v4.746c0,1.271,0.432,2.536,1.29,3.594L68.003,113.541z"/>
			</g>
		</g>
		<g>
			<g>
				<rect x="120.832" y="79.27" fill="#E6E5E5" width="47.553" height="3.577"/>
				<rect x="120.832" y="86.426" fill="#E6E5E5" width="47.553" height="3.57"/>
				<rect x="120.832" y="93.573" fill="#E6E5E5" width="23.775" height="3.577"/>
				<rect x="120.832" y="63.178" fill="#CCCBCA" width="47.553" height="12.524"/>
			</g>
		</g>
	</g>
	<g>
		<path fill-rule="evenodd" clip-rule="evenodd" fill="#F77B55" d="M196.12,107.82c0.991,0,1.985,0.382,2.743,1.138
			c0.754,0.757,1.137,1.744,1.137,2.749l-0.003,45.014c0.003,0.995-0.38,1.997-1.138,2.742c-0.758,0.769-1.748,1.132-2.743,1.132
			h-71.41c-0.993,0-1.985-0.369-2.744-1.129c-0.746-0.75-1.133-1.75-1.133-2.745l0.003-45.014c0-1.005,0.375-1.989,1.131-2.749
			c0.758-0.756,1.753-1.125,2.743-1.138H196.12z"/>
		<g>
			<rect x="130.686" y="148.903" fill-rule="evenodd" clip-rule="evenodd" fill="#353F49" width="12.38" height="1.688"/>
			<rect x="146.376" y="148.903" fill-rule="evenodd" clip-rule="evenodd" fill="#353F49" width="12.378" height="1.683"/>
			<rect x="162.072" y="148.906" fill-rule="evenodd" clip-rule="evenodd" fill="#353F49" width="12.378" height="1.683"/>
			<rect x="177.761" y="148.903" fill-rule="evenodd" clip-rule="evenodd" fill="#353F49" width="12.374" height="1.688"/>
		</g>
		<g>
			<rect x="130.686" y="134.195" fill-rule="evenodd" clip-rule="evenodd" fill="#FFFFFF" width="59.451" height="6.789"/>
			<g>
				<rect x="159.945" y="136.952" fill-rule="evenodd" clip-rule="evenodd" fill="#353F49" width="3.407" height="1.27"/>
				<rect x="165.259" y="136.953" fill-rule="evenodd" clip-rule="evenodd" fill="#353F49" width="10.197" height="1.267"/>
				<rect x="177.357" y="136.957" fill-rule="evenodd" clip-rule="evenodd" fill="#353F49" width="10.194" height="1.265"/>
			</g>
		</g>
		<rect x="120.832" y="117.419" fill-rule="evenodd" clip-rule="evenodd" fill="#353F49" width="79.168" height="12.081"/>
	</g>
	<g>
		<path fill="#CCCBCA" d="M21.358,93.488c-9.067,0-16.43,7.35-16.43,16.407v9.766h5.256v-9.766c0-6.146,5.008-11.144,11.174-11.144
			c6.151,0,11.16,4.998,11.16,11.144v9.766h5.26v-9.766C37.778,100.837,30.43,93.488,21.358,93.488z"/>
		<rect y="119.66" fill="#474F59" width="42.707" height="31.482"/>
		<g>
			<rect x="4.928" y="131.146" fill="#FFFFFF" width="32.85" height="8.519"/>
			<g>
				<g>
					<g>
						<path fill="#353F49" d="M12.788,135.399c0,0.932-0.754,1.686-1.684,1.686c-0.934,0-1.687-0.754-1.687-1.686
							c0-0.934,0.753-1.686,1.687-1.686C12.033,133.714,12.788,134.466,12.788,135.399z"/>
					</g>
					<g>
						<circle fill="#353F49" cx="16.227" cy="135.399" r="1.684"/>
					</g>
					<g>
						<path fill="#353F49" d="M23.039,135.399c0,0.932-0.752,1.686-1.687,1.686c-0.933,0-1.687-0.754-1.687-1.686
							c0-0.934,0.754-1.686,1.687-1.686C22.287,133.714,23.039,134.466,23.039,135.399z"/>
					</g>
					<g>
						<path fill="#353F49" d="M28.163,135.399c0,0.932-0.753,1.686-1.688,1.686c-0.924,0-1.677-0.754-1.677-1.686
							c0-0.934,0.753-1.686,1.677-1.686C27.409,133.714,28.163,134.466,28.163,135.399z"/>
					</g>
					<g>
						<path fill="#353F49" d="M33.289,135.399c0,0.932-0.754,1.686-1.689,1.686c-0.931,0-1.682-0.754-1.682-1.686
							c0-0.934,0.75-1.686,1.682-1.686C32.534,133.714,33.289,134.466,33.289,135.399z"/>
					</g>
				</g>
			</g>
		</g>
		<rect y="151.143" fill="#353F49" width="42.707" height="9.452"/>
	</g>
</g>
</svg>
